<svg id="Camada_1" data-name="Camada 1" xmlns="http://www.w3.org/2000/svg" viewBox="0 0 388.36 195.11"><defs><style>.cls-1{fill:#d6e9f1;}.cls-2{fill:#dfca71;}.cls-3{fill:#b44724;}.cls-4{fill:#798488;}.cls-5{fill:#bdd3dd;}.cls-6{fill:#a3b2b8;}.cls-7{fill:#fdfc99;}.cls-8{fill:#e2ce7a;}.cls-9{fill:#909a9f;}.cls-10{fill:#ecdb9a;}.cls-11{fill:#897733;}.cls-12{fill:#f6eaba;}.cls-13{fill:#f6cd01;}.cls-14{fill:#b09c53;}.cls-15{fill:#f17922;}.cls-16{fill:#be7501;}.cls-17{fill:#beac5b;}.cls-18{fill:#fe9a49;}.cls-19{fill:#fdfb5c;}.cls-20{fill:#dfd954;}.cls-21{fill:#782f18;}.cls-22{fill:#90a602;}.cls-23{fill:#fefefe;}.cls-24{fill:#8f7e58;}.cls-25{fill:#f6b216;}.cls-26{fill:#c9bf8f;}.cls-27{fill:#d06211;}.cls-28{fill:#6a5423;}.cls-29{fill:#c15b10;}.cls-30{fill:#fea456;}</style></defs><path class="cls-1" d="M325.14,445.88c6-.52,12-.93,18-1.58,7.91-.86,15.83-1.71,23.68-2.93,7.27-1.12,14.46-2.71,21.68-4.1,1.57-.31,3.13-.69,4.7-1a8.74,8.74,0,0,1-.9,1.78,102.43,102.43,0,0,1-22.66,21c-11.49,7.79-24,13.5-37.06,18.07-2.64.93-5.27,1.92-7.9,2.88l-11.42,1.13c2.12-6.22,4.26-12.43,6.37-18.66C321.47,456.94,323.3,451.41,325.14,445.88Z" transform="translate(-113.77 -286.87)"/><path class="cls-2" d="M460.43,391.83a43.66,43.66,0,0,1-12.95,11.56c1-2.17,2-4.33,3-6.54a2.44,2.44,0,0,0,.07-1.94c-1.63-2.53-3.42-5-5.15-7.45-.72-1-1.33-.84-2,.15.82,1,1.57,1.94,2.34,2.87,2.13,2.61,2.26,5.18.39,8-2,3-5.15,4.4-8.33,5.72a10.07,10.07,0,0,0-2.64-1.17c-2.66-.32-5.34-.42-8-.61l4.73-5.2c-.07-1.19-.13-2.38-.2-3.56.5-.47,1.17-.84,1.48-1.41.81-1.53,1.36-3.2,2.21-4.7,1.17-2.06,1.44-3.94-.46-5.7a21.66,21.66,0,0,0,2-1.57,18.21,18.21,0,0,0,1.48-2L434.05,373c-1.31-1.49-2.37-3.34-4-4.37-3-1.91-6.25-3.33-9.38-5a13.24,13.24,0,0,1-1.86-1.44l3.84-1.4c3.07,1,5.95.69,8.15-1.8a24.73,24.73,0,0,0,3.48-5.16c1.76-3.44,1.33-4.28-2.34-5.61a5,5,0,0,0-1.86-6.31s0-.12,0-.19a8.52,8.52,0,0,1,2.07.68c3.94,2.55,7.83,5.18,11.77,7.75A3.89,3.89,0,0,0,446,351c2.24-.25,4.45-.75,6.67-1.16,3.3-.56,6.58-1.29,9.9-1.63,8.13-.83,18.65,3.71,22.15,12.37a9.74,9.74,0,0,0,8.46,6.56,29.76,29.76,0,0,0,5.76-.53c.24.31.63.58.7.92,1.22,5.61-3.15,9.86-8.51,8.3h0L490,375h0l-.43-.43,0,0-.58-.42-9.12-8.93c0-.13,0-.26-.07-.39l0,0a12.85,12.85,0,0,0-7.42-4.48c-5.37-1.1-10.77-.86-16.22-.5-6.56.43-13.16.35-19.75.49-.56,0-1.11.07-2,.12l1.62,1.9c1.42,3.73,4.42,5.39,8.73,6.38-.39-2.06-.73-3.81-1.06-5.56,3.52-.27,7-.59,10.56-.75.47,0,1.13.65,1.42,1.16,2.43,4.31,2.7,8.71.29,13.12l2.72,3.06,1.28,3.26C460.15,386,460.29,388.92,460.43,391.83Zm-2.32-34.45.13-.32a21.21,21.21,0,0,0,3.59-.39c2.26-.63,4.47-1.43,6.65-2.25.4-.15.71-.77.86-1.23.05-.17-.46-.72-.77-.77-3.9-.66-7.87-1.56-11.51.8a12.8,12.8,0,0,0-2.32,2.75Z" transform="translate(-113.77 -286.87)"/><path class="cls-3" d="M225.79,431.33l-13.38-2.5-1.56-.38,0,0-24-7.54-7.64-2.63,5.82-1,4-2,4.07-5,9.06,1.6c3.72.66,7.44,1.34,11.16,2-.25.31-.49.63-.77.92-2.49,2.62-2.14,5,1,6.85s7.8.13,9.87-3.74l-9.78-4c.74,0,1.48.06,2.21.13,7.54.76,15.07,1.63,22.62,2.26,4.15.35,8.34.31,12.51.41,1.56,0,3.25.44,4.4-1.14l6,3.62a4.07,4.07,0,0,0,3.29,4.07,31.85,31.85,0,0,0,18.25.1c2.23-.63,4.22-1.88,4.54-4.59,7,.49,14.12-.19,21,2.06l4.57,4.82c.33,2.06.67,4.13,1,6.45l-46.07.45h-4.86c-8-.1-16-.12-24-.33C234.64,432.07,230.21,431.63,225.79,431.33Z" transform="translate(-113.77 -286.87)"/><path class="cls-4" d="M325.14,445.88c-1.84,5.53-3.67,11.06-5.53,16.58-2.11,6.23-4.25,12.44-6.37,18.66l-1.95.11H302.4c-.8,0-1.6-.11-2.41-.12l-21.91-.41q0-17.06,0-34.1c6,0,12,.19,17.95.08C305.76,446.5,315.45,446.15,325.14,445.88Z" transform="translate(-113.77 -286.87)"/><path class="cls-1" d="M133.39,412.69c3.36,1.81,6.69,3.69,10.09,5.42,13,6.57,26.59,11.3,40.53,15.21,4.31,1.21,8.69,2.21,13,3.3a17.25,17.25,0,0,1,.36,2.36c0,4.11,0,8.23.06,12.34a3.19,3.19,0,0,0,1.09,2.3c9.38,6.23,19.11,11.81,29.69,15.76,1.51.56,3,1.22,4.54,1.66,8.06,2.32,16.14,4.58,24.21,6.87a11.25,11.25,0,0,0,1.11.39l9.42,2.05a49.31,49.31,0,0,1-6.08-.05c-12.47-1.61-24.94-3.46-37-6.95-9.4-2.7-18.59-6.16-27.86-9.3-.29-.1-.5-.42-.75-.64l-.82-.48h0l-.82-.41h0q-5.87-3.15-11.73-6.28a139.94,139.94,0,0,1-30.15-21.78c-5.71-5.39-10.82-11.43-16.09-17.27A28.86,28.86,0,0,1,133.39,412.69Z" transform="translate(-113.77 -286.87)"/><path class="cls-5" d="M324.66,480c2.63-1,5.26-1.95,7.9-2.88,13.07-4.57,25.57-10.28,37.06-18.07a102.43,102.43,0,0,0,22.66-21,8.74,8.74,0,0,0,.9-1.78c7.75-2.21,15.61-4.09,23.21-6.74,8.88-3.1,17.51-6.89,26.26-10.38.37-.14.75-.25,1.13-.38a4.19,4.19,0,0,1-.59,1.22c-3.71,3.61-7.24,7.43-11.2,10.73-6.56,5.45-13.24,10.76-20.15,15.75a169.12,169.12,0,0,1-29.5,17.08,228.28,228.28,0,0,1-32.52,12.06,16.91,16.91,0,0,0-2.91,1.47c-3.83.61-7.65,1.28-11.48,1.79C331.85,479.3,328.25,479.61,324.66,480Z" transform="translate(-113.77 -286.87)"/><path class="cls-6" d="M257,477.91c-8.07-2.29-16.15-4.55-24.21-6.87-1.54-.44-3-1.1-4.54-1.66q0-13.38,0-26.78Q239.1,443.79,250,445c2.47.26,4.95.41,7.42.62a18.68,18.68,0,0,0-.4,2.77C257,458.2,257,468.05,257,477.91Z" transform="translate(-113.77 -286.87)"/><path class="cls-7" d="M180.35,328.85c4.88-6.49,11.53-10.82,18.47-14.66,3.8-2.09,8-3.54,12-5.27l6.89-1.57,10.09-1.3,17.67.52,8.72,1.94,4.48,1.6,5.23,2.86,9.72,7.74H274a13.61,13.61,0,0,0,1.05,1.62c3.17,3.87,5.48,8.06,5.07,13.29a17.78,17.78,0,0,1-8.24,11.05c-6.39,4-13.16,3.56-19.82,1.07a133.27,133.27,0,0,0-31.3-7.56c-10.82-1.27-21.68-2.27-32.52-3.39,6.77-1.86,13.52-3.78,20.3-5.56,2.64-.69,5.36-1.09,8-1.62-.74.27-1.47.59-2.23.81-4.24,1.23-8.49,2.42-12.72,3.69a7,7,0,0,0-1.72,1.11l-1.28.83-1.39.64.14.52a48.92,48.92,0,0,0,6.1.86c5.79.12,11.58.15,17.36,0,1.42,0,2.81-1,4.21-1.49,3-1.38,4.51-3.95,5.37-7,.09-1.35.19-2.7.28-4.05l-3.24,0-2.08-.4,3.42-1.66-.12-.77H206.33c2.63-.27,5.27-.68,7.91-.76,4.4-.14,8.81-.06,13.22-.08l1.91.05,6.95,3.13,4.08-2.34,4.16.47,4.34,1.16L244.78,326l-6.81-1.7.85,1.26-.69.06-.59,1.17c-2.23-1.72-3-1.62-3.57.48-.41,2.75-.93,5.48-1.16,8.24-.05.58.95,1.24,1.47,1.87v0l.43.55,12.14,4.44.82.28,4.19,0c-.06-1.22,0-2.46-.21-3.68a5.46,5.46,0,0,0-.78-1.54l.65-.5c.48.64.93,1.3,1.44,1.92a55.39,55.39,0,0,0,3.86,4.61c3.62,3.54,9.2,3.86,12.34.84h0l.45-.38.26-.09.49-.36.45-.8c1.23-1.58,1.07-3.3-.57-5.2a18.47,18.47,0,0,0-7.47-5.37c-3.82-1.46-7.63-2.95-11.44-4.43a56.34,56.34,0,0,1,15.05,3.22c3.44,1.2,7,2,10.58,2.86.88.22,1.47-.13,1.56-1.26.27-3.38-2.52-8.21-5.71-9.68h0l-.43-.41-1.59-1.16a12.09,12.09,0,0,0-2.09-2.08c-3.46-2.05-7-3.77-11.24-2.38l-1.33-2.1,2.11-1.23a37,37,0,0,0-3.23-2,28.46,28.46,0,0,0-13-2.48c-1.41,0-2,.35-2.07,1.69L238,315.25c-.15-3.37-.15-3.37-2.92-3.54,0-1.32,1.39-3-.81-3.77a8.34,8.34,0,0,0-3.54-.54q-7.26.84-14.47,2a22.27,22.27,0,0,0-3.94,1.39v.7l3,1.44.79.85L214.85,315c-9-3.22-15.76,1.47-22.67,5.73l0,.72,1.58.51c.51.38,1,1,1.53,1.09a11.38,11.38,0,0,0,2.55.09c-2.91.68-5.89,1.15-8.72,2.08-2.53.83-5.08,2-5.47,5.19,0,.26,0,.52-.05.78a8.51,8.51,0,0,0,.24,2.7,10.54,10.54,0,0,0,1.83,2.28L180,334c-1.13-1.61-.56-3.24,0-4.87l0,0Z" transform="translate(-113.77 -286.87)"/><path class="cls-1" d="M346.91,477a16.91,16.91,0,0,1,2.91-1.47,228.28,228.28,0,0,0,32.52-12.06,169.12,169.12,0,0,0,29.5-17.08c6.91-5,13.59-10.3,20.15-15.75,4-3.3,7.49-7.12,11.2-10.73a4.19,4.19,0,0,0,.59-1.22h0l.83-.47c2.76-1.62,5.65-3.06,8.25-4.9,4.64-3.28,9.24-6.62,13.57-10.27,2.72-2.3,4.92-5.22,7.35-7.86h0c-1.46,2.86-2.75,5.81-4.39,8.56a111.35,111.35,0,0,1-13.84,18c-10.47,11.42-22.76,20.46-36,28.26a209.66,209.66,0,0,1-46.46,20.44C364.47,473.11,355.64,474.9,346.91,477Z" transform="translate(-113.77 -286.87)"/><path class="cls-8" d="M138.28,400.47c-9.34-7.26-16-16-15.06-28.69l-4.07-.23c1.07-3.39,3.83-5,6.14-7.08,9.34-5.08,19.55-6.44,30-6.93l5.7,0,.48,2.85-.06.39-.43.81,0,0L160,362l-.29.25L157.29,364a8.09,8.09,0,0,0-1.78-.81c-2.5-.52-5-1-7.52-1.39-7.91-1.21-14.41,1.54-19.75,7.28a3,3,0,0,0-.7,2.32c.14.51,1.25,1.06,1.94,1.07a58.8,58.8,0,0,0,8.81-.23c3.78-.5,7.5-1.45,11.25-2.21-1.82,2.09-4,3.94-4.44,6.92-1.93,1.1-4.22,1.85-5.69,3.38-2.27,2.39-1.11,7,1.7,8.41h0l.45.82,2.23,1.66,6.22,3.22.85,1.09-1.66,1.16,2.77,1.06a77,77,0,0,0,7.9,3.88c4.34,1.57,8.83,2.76,13.26,4.11l-2.05,4.93a176.86,176.86,0,0,1-28.78-8.93C141,401.21,139.62,400.89,138.28,400.47Z" transform="translate(-113.77 -286.87)"/><path class="cls-9" d="M257,477.91c0-9.86,0-19.71,0-29.56a18.68,18.68,0,0,1,.4-2.77l20.71,1q0,17.06,0,34.1l-4.11.18h-.77l-4.89-.45-.78-.07-9.42-2.05A11.25,11.25,0,0,1,257,477.91Z" transform="translate(-113.77 -286.87)"/><path class="cls-5" d="M228.21,442.6q0,13.39,0,26.78c-10.58-3.95-20.31-9.53-29.69-15.76a3.19,3.19,0,0,1-1.09-2.3c-.1-4.11,0-8.23-.06-12.34a17.25,17.25,0,0,0-.36-2.36c6,1.21,12,2.44,18,3.61C219.45,441.07,223.84,441.81,228.21,442.6Z" transform="translate(-113.77 -286.87)"/><path class="cls-7" d="M335.53,295.64a22.36,22.36,0,0,1,8.5,6.44l-1.14,0h0l-.82-.42-2.81-1.23c-1.14-.53-2.28-1.47-3.44-1.5-5.72-.16-11.45-.07-17.19-.07l-.05.9a34.7,34.7,0,0,0,4.25.66c2.76.12,5.53.06,8.29.07a31.43,31.43,0,0,0,4.46.74c3.47.09,5.35,2.26,6.92,4.92l-5.71-1.58L326.3,302l-.87-.34-.08.28.91.1,6.85,2.41,9.78,4.47c1,.42,2.09.81,3.12,1.25a1.87,1.87,0,0,0,2.63-.55c0,.85,0,1.7,0,2.55l-.14.66a11.48,11.48,0,0,1-6.17,4.29c-6.1,2.13-11.94,1-17.7-1.33l-23.39-9.37a2.92,2.92,0,0,1,1.1-.32,8.92,8.92,0,0,0,7.76-2.86l-.06,1.13-.47.88c-1,1.15-.7,2.23.53,2.81,3.51,1.66,7.08,3.19,10.65,4.72.93.4,1.74.2,1.94-1l.38-.39c0-.86.28-1.93-.12-2.55-2.59-4.07-6.38-6.86-10.48-9.28l-1.14,1.2-1.74-.39c.08-.27.16-.54.23-.82l.29-.64H281.54l-.05.68,2.27,1.14-.84.41a43.13,43.13,0,0,1-4.83-1.2c-3.83-1.39-7.6-2.94-11.4-4.42-.93-1.44,0-2.3,1.06-2.91a29.94,29.94,0,0,1,12.33-4c0,.28.05.56.08.85l-1,1,2.23.95a50.22,50.22,0,0,0-6.26.1,17.9,17.9,0,0,0-4,1.49c-.34.53-1.08,1.37-1,1.53a12,12,0,0,0,2.05,1.75c.45.26.89.74,1.34.75,7.7.26,15.39.45,23.08.66l0-.56c-2.05-.13-4.11-.36-6.16-.35-3.09,0-6.18.38-9.25.24-2.86-.13-5.69-.74-8.53-1.15a1.87,1.87,0,0,0,0-.34c2.11-1.33,4.27-2.11,6.87-1.36a34.46,34.46,0,0,0,4.59.51c4.37.66,8.87.94,13.06,2.2a23.22,23.22,0,0,0,12.7,0c-2.2-.43-4-.74-5.86-1.18a14.06,14.06,0,0,1-2.24-.95l.46-.13,5.29.83.43.31.1-.16-.54-.14L305.57,294l1.27,0,.51.14-.52-.13c-1.39-.95-2.75-1.94-4.18-2.83-1-.62-2.06-1.1-3.1-1.64,4.72-1,9.17.25,13.66,1.27-.59,1.78-1.08,3.28-1.58,4.77l.06.46h0l.83.42h0c.43.69.86,1.11,1.38.07.86-1.71,1.74-3.41,2.54-5.16.12-.25-.15-.69-.24-1,0-.13,0-.25-.05-.37l-.38-.39h0l0-.71,9.07,2.58-1.31.54,0,0-3.23.3-4.62,5.27.38.46h1.37l14.35-.8H336ZM319,302.38l.07.07.34.34.44.44,7,7.34,3.06,3.66,0,0,.83.43,0,0,.39.32,2.15.86c2.16.27,4.3.66,6.47.75a2.57,2.57,0,0,0,2.13-1.07,3,3,0,0,0-.58-2.54,14.85,14.85,0,0,0-4-3.3c-5.21-2.66-10.51-5.12-15.79-7.62-1.36-.63-2.78-1.12-4.17-1.67l-.31.58,1.65,1.13Z" transform="translate(-113.77 -286.87)"/><path class="cls-6" d="M155.24,357.54c-10.4.49-20.61,1.85-29.95,6.93,1.72-4.5,4.75-8.1,8.15-11.37,10.58-10.19,23.79-15.77,37.18-21,3-1.18,6.25-2,9.38-2.95-.53,1.63-1.1,3.26,0,4.87v1.63a27.53,27.53,0,0,0-14.59,7.15c-2.67,1.1-5.45,2-8,3.34-4.76,2.53-4.92,4.7-.88,8.13Z" transform="translate(-113.77 -286.87)"/><path class="cls-10" d="M334.49,434.8l-17.56.95q.84-8.25,1.7-16.51l7.08.52c.63-3.2-.08-5.64-2.32-7.45-1.5-1.22-3.21-2.19-4.82-3.27-.41-2.16-.81-4.33-1.21-6.49l3.95-.89c3,2.85,6.4,5,10.65,5.34q.42,2.64.85,5.28l.41,12.17-8.43,6.62,8.7,1.16C333.82,433.09,334.16,433.94,334.49,434.8Z" transform="translate(-113.77 -286.87)"/><path class="cls-10" d="M357.77,311.62c15.56-6,28.17-5,41.07,8.48.27.32.54.65.82,1h0a19.29,19.29,0,0,0,.71,2.27c.93,2.08,1.93,4.14,2.9,6.2-2.23.7-4.45,1.47-6.71,2.05a5.94,5.94,0,0,1-2.19-.32l-.44-.44,0,.07-2.38-2.79-.42-.52h0l-.81-.41h0a8.76,8.76,0,0,0-1.27-1.43,23.66,23.66,0,0,0-11.27-3.87l-7.32-4L368,316.28c4.17-1.41,8.36-2,12.61-.3a2.9,2.9,0,0,0,1.58.2c.66-.15,1.65-.45,1.79-.9a2.31,2.31,0,0,0-.57-2.06,12.85,12.85,0,0,0-4.23-2.19c-6-1.4-11.67.38-17.26,2.4Z" transform="translate(-113.77 -286.87)"/><path class="cls-5" d="M133.39,412.69a28.86,28.86,0,0,0,2.82,4.52c5.27,5.84,10.38,11.88,16.09,17.27a139.94,139.94,0,0,0,30.15,21.78q5.87,3.12,11.73,6.28c-2.93-1.14-5.93-2.12-8.77-3.45a192.87,192.87,0,0,1-35.57-21.41c-12.29-9.41-22.92-20.38-31.13-33.56-1.84-2.94-3.19-6.17-4.77-9.27h0c1.76,2.1,3.3,4.45,5.33,6.24C123.85,405.1,128.67,408.84,133.39,412.69Z" transform="translate(-113.77 -286.87)"/><path class="cls-3" d="M394.36,331.26a5.94,5.94,0,0,0,2.19.32c2.26-.58,4.48-1.35,6.71-2.05l4.07-1.27c4.49-2.45,7.82.08,11.16,2.59.85.65,1.67,1.36,2.5,2l.5.41,0,0q1.55,2.84,3.07,5.67l-9-.65,0,.49,2.06.23c-3.57,2.19-4.59,5.2-4.14,8.83-3-1.06-5.91-2.1-8.84-3.22a1.85,1.85,0,0,1-.87-1.1c-.73-2.21-1.32-4.46-2.1-6.65a2.14,2.14,0,0,0-1.43-1.12c-3.7-.51-7.41-.9-11.12-1.33.49-2.26-1.09-3.72-2.1-5.4l6.95,1.87,0-.07C394.07,331,394.21,331.12,394.36,331.26Z" transform="translate(-113.77 -286.87)"/><path class="cls-11" d="M431.84,397.19l-4.73,5.2a8.08,8.08,0,0,0-5.59,3.41l-.4.42h0c-2.34.8-2.4.94-1.37,3.55l1.75.08c.2,2.07,1.3,2.89,3.61,2.32,3.17-.8,6.31-1.77,9.42-2.77,2.59-.84,5.13-1.84,7.69-2.77-3.79,2-7.48,4.2-11.41,5.87-6.11,2.6-12.38,4.83-18.58,7.21l-1.67-.95c-.36-1-.66-2-1.11-3a37.34,37.34,0,0,1-3.77-12.42,10.4,10.4,0,0,1,2.47-1.24c4.76-1,9.54-1.85,14.3-2.82C425.6,398.65,428.72,397.89,431.84,397.19Z" transform="translate(-113.77 -286.87)"/><path class="cls-12" d="M217.67,307.35l-6.89,1.57c5.7-6.55,12.35-11.68,21.14-13.12A28,28,0,0,1,248.47,298c3.15,1.47,6.09,3.39,9.13,5.1l-12.17,3.43-17.67-.52c1.3-1.7,4.1-1.66,5-4C228.34,300.81,221.62,303.26,217.67,307.35Z" transform="translate(-113.77 -286.87)"/><path class="cls-13" d="M301.23,306.44l23.39,9.37c5.76,2.32,11.6,3.46,17.7,1.33a11.48,11.48,0,0,0,6.17-4.29c-.36,1.27-.73,2.53-1.1,3.8-2.24,3.09-5.48,4.2-9.1,4.43-7.28.47-14.18-1.29-20.81-4-9.74-4.05-19.11-9-29.43-11.62-7.09-1.79-14.16-3.68-21.24-5.53l-.12-4.34c3.8,1.48,7.57,3,11.4,4.42a43.13,43.13,0,0,0,4.83,1.2,7.08,7.08,0,0,0,1.05.48C289.72,303.26,295.47,304.84,301.23,306.44Z" transform="translate(-113.77 -286.87)"/><path class="cls-14" d="M318.63,419.24q-.86,8.25-1.7,16.51a9.26,9.26,0,0,1-1.76.34q-24.23-.18-48.45-.4a7.22,7.22,0,0,1-1.18-.23l2.41-2.94,46.07-.45c-.37-2.32-.71-4.39-1-6.45.38-.4.92-.72,1.13-1.19.76-1.75,1.41-3.55,2.1-5.34Z" transform="translate(-113.77 -286.87)"/><path class="cls-15" d="M368,316.28l2.47,1.59a23.74,23.74,0,0,0,2.38,2.89c3,2.72,4.59,5.86,3.34,10l-14.65.43a17.59,17.59,0,0,0,.41-2.95,23.23,23.23,0,0,0-4.62-13.61l-3.14-4.3,3.61,1.3,4.12,1.81Z" transform="translate(-113.77 -286.87)"/><path class="cls-16" d="M266.81,299.89c7.08,1.85,14.15,3.74,21.24,5.53C298.37,308,307.74,313,317.48,317c6.63,2.75,13.53,4.51,20.81,4,3.62-.23,6.86-1.34,9.1-4.43,1.41,2.33,1,4.17-1.3,5.47-1.31.75-2.67,1.42-4,2.13l-4.42.93c-6.23.48-11.88-1.33-17.32-4.19-2.54-1.33-5.23-2.37-7.85-3.55-1.67-.84-3.3-1.78-5-2.5-3.7-1.53-7.44-2.95-11.17-4.41h0l-.83-.45-11.84-4-6.75-1.6-4.9-1.24-6.44-2Z" transform="translate(-113.77 -286.87)"/><path class="cls-8" d="M410.57,418.75l1.67.95L398.82,424l-1.64-2.34-1.61-1.23h0c-.58-.69-1-1.63-1.74-2-4-2.23-8-4.33-12-6.48,1.77-2,3.57-3.94,5.27-6,.23-.28,0-1-.05-1.45l.74-.89,4.19,2.24,3.08,3.28,4.18,3.62Z" transform="translate(-113.77 -286.87)"/><path class="cls-2" d="M171.07,410.68l2.05-4.93,11.33,2.88a15,15,0,0,0,.54,8.63l-5.82,1,7.64,2.63c.31.63.61,1.25.91,1.88l-17-5.66Z" transform="translate(-113.77 -286.87)"/><path class="cls-1" d="M460,383.09c-.43-1.09-.85-2.18-1.28-3.26,3.9-6.45.95-11.91-3-17.76h7.92c4.37,8.24,4.46,16.5.13,24.78a10.6,10.6,0,0,1-1.18,1.53Z" transform="translate(-113.77 -286.87)"/><path class="cls-1" d="M424.53,338.94q-1.53-2.83-3.07-5.67c2,.66,4,1.2,5.85,2a112.8,112.8,0,0,1,24.61,13.65,5.75,5.75,0,0,1,.78.91c-2.22.41-4.43.91-6.67,1.16a3.89,3.89,0,0,1-2.11-.87c-3.94-2.57-7.83-5.2-11.77-7.75a8.52,8.52,0,0,0-2.07-.68h0l-.51-.32-.24-.12-.52-.31Z" transform="translate(-113.77 -286.87)"/><path class="cls-17" d="M463.65,362.07h-7.92c4,5.85,6.91,11.31,3,17.76-.88-1-1.76-2-2.72-3.06,2.41-4.41,2.14-8.81-.29-13.12-.29-.51-1-1.18-1.42-1.16-3.52.16-7,.48-10.56.75l-7.67-.82-1.62-1.9c.89,0,1.44-.1,2-.12,6.59-.14,13.19-.06,19.75-.49,5.45-.36,10.85-.6,16.22.5a12.85,12.85,0,0,1,7.42,4.48,59,59,0,0,0-8-2.48A57.82,57.82,0,0,0,463.65,362.07Z" transform="translate(-113.77 -286.87)"/><path class="cls-17" d="M442.23,406.62c-2.56.93-5.1,1.93-7.69,2.77-3.11,1-6.25,2-9.42,2.77-2.31.57-3.41-.25-3.61-2.32l5.67-1.58a13.51,13.51,0,0,0,2.94-.53c2.58-1.1,5.1-2.36,7.65-3.56,3.18-1.32,6.31-2.71,8.33-5.72,1.87-2.79,1.74-5.36-.39-8-.77-.93-1.52-1.87-2.34-2.87.67-1,1.28-1.19,2-.15,1.73,2.47,3.52,4.92,5.15,7.45a2.44,2.44,0,0,1-.07,1.94c-.92,2.21-2,4.37-3,6.54v0l-.44.4-3.45,2-1,.42,0,0-.44.43Z" transform="translate(-113.77 -286.87)"/><path class="cls-18" d="M354.16,310.32l3.14,4.3a23.23,23.23,0,0,1,4.62,13.61,17.59,17.59,0,0,1-.41,2.95l-1.6,0c-.13-.86-.33-1.72-.38-2.58-.36-6.95-4.76-11.49-9.43-15.85a4.88,4.88,0,0,0-1.47-.6c0-.85,0-1.7,0-2.54,0-.5-.05-1-.07-1.5Z" transform="translate(-113.77 -286.87)"/><path class="cls-11" d="M397.18,421.61l1.64,2.34-8.91,2.27a3.92,3.92,0,0,0-3.65-3.85L382.19,418a15.72,15.72,0,0,0,1.63-1.13,3.09,3.09,0,0,1,4.1-.4c2.46,1.45,5.09,2.62,7.65,3.9h0Z" transform="translate(-113.77 -286.87)"/><path class="cls-17" d="M171.07,410.68l-.39,6.43-4.92-1.95,4-2.82-15.58-4.4-.24,2-15.69-9.5c1.34.42,2.73.74,4,1.28A176.86,176.86,0,0,0,171.07,410.68Z" transform="translate(-113.77 -286.87)"/><path class="cls-15" d="M265.55,301.26l6.44,2a7.17,7.17,0,0,1-1.58.76c-4.85,1.14-9.72,2.2-14.57,3.36a5.87,5.87,0,0,0-1.69,1.11l-8.72-1.94,12.17-3.43Z" transform="translate(-113.77 -286.87)"/><path class="cls-19" d="M315.7,288.77l0,.71a3.87,3.87,0,0,1-1.19-.08c-4.72-1.83-9.74-1.29-14.61-1.92a17,17,0,0,0-2.26,0l-.17.65,2,1.36c1,.54,2.11,1,3.1,1.64,1.43.89,2.79,1.88,4.18,2.83h0l-1.27,0-2.4-.79a50,50,0,0,0-4.62-2.73c-5.07-2.34-10.32-2.37-15.64-.95l-2.75,0-.08-.85c3.9-.63,7.79-1.77,11.68-1.79,6.63,0,13.26.6,19.88,1a15.83,15.83,0,0,1,2.89.77l.77,0A1.87,1.87,0,0,1,315.7,288.77Z" transform="translate(-113.77 -286.87)"/><path class="cls-10" d="M225.79,431.33c4.42.3,8.85.74,13.27.86,8,.21,16,.23,24,.33l-2.4,2.76c-3.95-.28-7.9-.45-11.83-.87-6.4-.68-12.78-1.51-19.17-2.31C228.38,431.93,227.09,431.59,225.79,431.33Z" transform="translate(-113.77 -286.87)"/><path class="cls-14" d="M334.49,434.8c-.33-.86-.67-1.71-1-2.57,1.15,0,2.29,0,3.44,0,6.37-.19,12.76-.1,19.1-.66,5.52-.5,11-1.72,16.47-2.62l-.82,1.14c-5.64.93-11.26,2-16.92,2.74-6.4.84-12.84,1.4-19.27,2.06A4.8,4.8,0,0,1,334.49,434.8Z" transform="translate(-113.77 -286.87)"/><path class="cls-17" d="M491.16,375.82c5.36,1.56,9.73-2.69,8.51-8.3-.07-.34-.46-.61-.7-.92,2.83,0,3.3.42,3.13,3.07a26.15,26.15,0,0,1-.77,5.37c-1.26,4.44-4.56,5.56-8.28,2.88A13.19,13.19,0,0,1,491.16,375.82Z" transform="translate(-113.77 -286.87)"/><path class="cls-11" d="M154,410l.24-2,15.58,4.4-4,2.82Z" transform="translate(-113.77 -286.87)"/><path class="cls-20" d="M320.21,292.22l3.23-.3.87.34.07-.3-.92-.07,1.31-.54,10.76,4.29c.11.38.21.76.43,1.51h-4.27l-.5-.42-10-4.05Zm7.7.9.82.33.07-.28-.9,0-.84-.37-.08.29Zm-2.56-.69,0,.23.56-.11,0-.22Z" transform="translate(-113.77 -286.87)"/><path class="cls-14" d="M187.72,422.77c-.3-.63-.6-1.25-.91-1.88l24,7.54Z" transform="translate(-113.77 -286.87)"/><path class="cls-14" d="M386.26,422.37a3.92,3.92,0,0,1,3.65,3.85l-8.5,1.82c.13-.82.26-1.65.4-2.48Z" transform="translate(-113.77 -286.87)"/><path class="cls-1" d="M274,480.88l4.11-.18,21.91.41c.81,0,1.61.08,2.41.12-.55.24-1.09.7-1.63.7-5.57.05-11.14.08-16.71,0-2.93,0-5.87-.22-8.8-.41C274.82,481.5,274.4,481.1,274,480.88Z" transform="translate(-113.77 -286.87)"/><path class="cls-19" d="M348.57,308.15c0,.5,0,1,.07,1.5a1.88,1.88,0,0,1-2.63.54c-1-.44-2.08-.83-3.12-1.25a1.86,1.86,0,0,1,.34-.06c1.94-.08,2.51-.87,1.76-2.59-.64-1.45-1.39-2.84-2.1-4.25l1.14,0Z" transform="translate(-113.77 -286.87)"/><path class="cls-8" d="M381.81,425.56c-.14.83-.27,1.66-.4,2.48l-9.73,2c.27-.38.55-.76.82-1.15Z" transform="translate(-113.77 -286.87)"/><path class="cls-2" d="M407.33,328.26l-4.07,1.27c-1-2.06-2-4.12-2.9-6.2a19.29,19.29,0,0,1-.71-2.27c.78,1,1.89,1.81,2.29,2.92A6.35,6.35,0,0,0,407.33,328.26Z" transform="translate(-113.77 -286.87)"/><path class="cls-17" d="M260.69,435.28l2.4-2.76H268l-2.41,2.94Z" transform="translate(-113.77 -286.87)"/><path class="cls-14" d="M460,383.09l2.58,5.29-2.17,3.45C460.29,388.92,460.15,386,460,383.09Z" transform="translate(-113.77 -286.87)"/><path class="cls-1" d="M303.59,481.23h0Z" transform="translate(-113.77 -286.87)"/><path class="cls-1" d="M268.31,480.42l4.89.45C271.53,481.1,269.82,481.87,268.31,480.42Z" transform="translate(-113.77 -286.87)"/><path class="cls-17" d="M490,375l1.24.82Z" transform="translate(-113.77 -286.87)"/><path class="cls-2" d="M399.66,321.07c-.28-.32-.55-.65-.82-1Z" transform="translate(-113.77 -286.87)"/><path class="cls-14" d="M210.85,428.45l1.56.38Z" transform="translate(-113.77 -286.87)"/><path class="cls-5" d="M444.61,418.27l-.83.47Z" transform="translate(-113.77 -286.87)"/><path class="cls-11" d="M442.59,406.23l1-.42Z" transform="translate(-113.77 -286.87)"/><path class="cls-5" d="M194.17,462.53l.82.41Z" transform="translate(-113.77 -286.87)"/><path class="cls-5" d="M195,462.93l.82.48Z" transform="translate(-113.77 -286.87)"/><path class="cls-7" d="M315.3,288.7l-.77,0Z" transform="translate(-113.77 -286.87)"/><path class="cls-11" d="M442.18,406.63l.44-.43Z" transform="translate(-113.77 -286.87)"/><path class="cls-2" d="M447,403.77l.44-.4Z" transform="translate(-113.77 -286.87)"/><path class="cls-17" d="M489.55,374.59l.43.43Z" transform="translate(-113.77 -286.87)"/><path class="cls-6" d="M180.35,328.85l-.37.35Z" transform="translate(-113.77 -286.87)"/><path class="cls-17" d="M489,374.19l.58.42Z" transform="translate(-113.77 -286.87)"/><path class="cls-1" d="M421.49,333.29l-.5-.41Z" transform="translate(-113.77 -286.87)"/><path class="cls-5" d="M113.94,394.85l-.17-.2a.42.42,0,0,1,.12,0,.59.59,0,0,1,.06.16Z" transform="translate(-113.77 -286.87)"/><path class="cls-1" d="M473.78,395.24l.17-.16-.16.17Z" transform="translate(-113.77 -286.87)"/><path class="cls-17" d="M479.81,364.87c0,.13.05.26.07.39a1.12,1.12,0,0,1-.11-.25S479.8,364.92,479.81,364.87Z" transform="translate(-113.77 -286.87)"/><path class="cls-21" d="M389.05,334.42c3.71.43,7.42.82,11.12,1.33a2.14,2.14,0,0,1,1.43,1.12c.78,2.19,1.37,4.44,2.1,6.65a1.85,1.85,0,0,0,.87,1.1c2.93,1.12,5.89,2.16,8.84,3.22v0l.33.42,1.29.87,1.31,1.2c3.14,2.86,5.85,6,6.36,10.45l-3.83,1.41-6.29-1.41-9.18-4.83-5.31-5.76c-.56-.64-1.13-1.28-1.69-1.93a18.14,18.14,0,0,0-8.48-5.39c1.08-.83,2.12-1.72,3.24-2.48s2.15-1.24,3.22-1.86v0l0-.8-6.91-.44Z" transform="translate(-113.77 -286.87)"/><path class="cls-22" d="M415,349.11l-1.29-.87-.33-.42v0c-.45-3.63.57-6.64,4.14-8.83l-2.06-.23,0-.49,9,.65,4.26,2,.52.31.24.12.51.32h0c0,.07,0,.17,0,.19a5,5,0,0,1,1.86,6.31c-.59,1.69-1.19,3.39-1.81,5.15-2.17-.42-4.14-1-5.47-3a2.67,2.67,0,0,0-1.83-.84C420.26,349.27,417.64,349.22,415,349.11Z" transform="translate(-113.77 -286.87)"/><path class="cls-17" d="M395,409.07,392,405.79l2.23-1.36c5-3.1,10.15-5.83,16-6.93,3.15-.6,6.36-.86,9.5-1.47s6.45-1.49,9.68-2.25v-.85l-12.72-2.56,1.95-2c4.7.88,9.42,1.75,13.06,5.28.07,1.18.13,2.37.2,3.56-3.12.7-6.24,1.46-9.38,2.1-4.76,1-9.54,1.82-14.3,2.82a10.4,10.4,0,0,0-2.47,1.24l-6.46,3.21Z" transform="translate(-113.77 -286.87)"/><path class="cls-3" d="M415,349.11c2.62.11,5.24.16,7.85.35a2.67,2.67,0,0,1,1.83.84c1.33,2,3.3,2.62,5.47,3,.62-1.76,1.22-3.46,1.81-5.15,3.67,1.33,4.1,2.17,2.34,5.61a24.73,24.73,0,0,1-3.48,5.16c-2.2,2.49-5.08,2.81-8.15,1.8-.51-4.46-3.22-7.59-6.36-10.45Z" transform="translate(-113.77 -286.87)"/><path class="cls-8" d="M431.64,393.63c-3.64-3.53-8.36-4.4-13.06-5.28.19-1.37.39-2.73.58-4.1,3.64,1.09,7.27,2.2,10.91,3.28,1.23.36,2.48.67,3.72,1l.5-.82a15.22,15.22,0,0,0-2.8-2.44c-2.19-1.13-4.52-2-6.79-3,2,0,4,0,6-.15.63-.05,1.21-.69,1.81-1.06l2.33.7c1.9,1.77,1.63,3.65.46,5.71-.85,1.5-1.4,3.17-2.21,4.7C432.81,392.79,432.14,393.16,431.64,393.63Z" transform="translate(-113.77 -286.87)"/><path class="cls-23" d="M437.77,404.17c-2.55,1.2-5.07,2.46-7.65,3.56a13.51,13.51,0,0,1-2.94.53c-1.33,0-2.65,0-4,0s-2.11-.6-2.07-2h0l.4-.42a8.08,8.08,0,0,1,5.59-3.41c2.68.19,5.36.29,8,.61A10.07,10.07,0,0,1,437.77,404.17Z" transform="translate(-113.77 -286.87)"/><path class="cls-23" d="M458.11,357.38,454.74,356a12.8,12.8,0,0,1,2.32-2.75c3.64-2.36,7.61-1.46,11.51-.8.31.05.82.6.77.77-.15.46-.46,1.08-.86,1.23-2.18.82-4.39,1.62-6.65,2.25a21.21,21.21,0,0,1-3.59.39Z" transform="translate(-113.77 -286.87)"/><path class="cls-14" d="M412.57,360.76l6.29,1.41a13.26,13.26,0,0,0,1.85,1.43c3.13,1.68,6.41,3.1,9.38,5,1.59,1,2.65,2.88,4,4.37-.54-.21-1.1-.37-1.62-.61-1.91-.88-3.8-1.79-5.7-2.69l-.71-.33a14,14,0,0,0-1.74-1.26c-2.68-1.39-5.46-2.6-8-4.12A24,24,0,0,1,412.57,360.76Z" transform="translate(-113.77 -286.87)"/><path class="cls-11" d="M436.08,362.42l7.67.82c.33,1.75.67,3.5,1.06,5.56C440.5,367.81,437.5,366.15,436.08,362.42Z" transform="translate(-113.77 -286.87)"/><path class="cls-11" d="M426.73,369.68c1.9.9,3.79,1.81,5.7,2.69.52.24,1.08.4,1.62.61l4.27,5.29-5.94-2.48c-1.53-2.05-2.79-4.35-5.32-5.42C426.88,370.3,426.84,369.92,426.73,369.68Z" transform="translate(-113.77 -286.87)"/><path class="cls-14" d="M432.38,375.78l5.94,2.49a16.92,16.92,0,0,1-1.47,2,21.66,21.66,0,0,1-2,1.57l-2.33-.71C432.49,379.33,432.43,377.56,432.38,375.78Z" transform="translate(-113.77 -286.87)"/><path class="cls-24" d="M394.37,338.51c-1.07.62-2.19,1.17-3.22,1.86s-2.16,1.65-3.24,2.48a3.83,3.83,0,0,0-.93.36c-5.65,4.26-12.2,6.37-18.93,8.13-4.65,1.22-9.21,2.78-13.81,4.18a59.52,59.52,0,0,0-6.43,1.7c-5.5,2.15-10.93,4.48-16.39,6.73l-8.77,5L321.13,370l-6.57,4.52L306.38,381,302.74,384l-2.41,1.94L297,388.36a1.66,1.66,0,0,0-.56.16,160.83,160.83,0,0,1-23.37,13.69,7.17,7.17,0,0,0-1.34,1.14,6.57,6.57,0,0,0-1.9.67c-4.84,3.81-9.64,7.67-14.46,11.52-1.15,1.58-2.84,1.18-4.4,1.14-4.17-.1-8.36-.06-12.51-.41-7.55-.63-15.08-1.5-22.62-2.26-.73-.07-1.47-.09-2.21-.13h-.34c-3.72-.67-7.44-1.35-11.16-2l-9.06-1.6-5.29-.79-3.31-.85-11.33-2.88c-4.43-1.35-8.92-2.54-13.26-4.11a77,77,0,0,1-7.9-3.88,5.92,5.92,0,0,1,1.19.11c7.3,2.09,14.55,4.38,21.91,6.27,8.12,2.09,16.28,4.09,24.51,5.65,7,1.34,14.24,1.83,21.32,3a123.91,123.91,0,0,0,26.91,1.83c2.53-.13,5.16-.08,7.44-1.94,5.84-4.76,11.71-9.5,17.84-13.86,4.7-3.34,10-5.87,14.73-9.19,6.76-4.75,13.39-9.72,19.83-14.91,12.4-10,26.64-16.19,41.66-20.8,6.73-2.06,13.68-3.42,20.47-5.32,6.3-1.77,12.5-3.91,17.87-7.81A11.82,11.82,0,0,1,394.37,338.51Z" transform="translate(-113.77 -286.87)"/><path class="cls-22" d="M287.45,418.74c-.32,2.71-2.31,4-4.54,4.59a31.85,31.85,0,0,1-18.25-.1,4.07,4.07,0,0,1-3.29-4.07q1.68-3.42,3.37-6.86a16.53,16.53,0,0,1,8.83-4.47l2.07-.05,2.29.27-4.88,2.51h5.39l4.46.79,2.51,1.7Z" transform="translate(-113.77 -286.87)"/><path class="cls-17" d="M287.45,418.74l-2-5.69c.9-.66,1.83-1.29,2.72-2,8.08-6.27,17.5-9.26,27.37-11.14l1.86,2.62c.4,2.16.8,4.33,1.21,6.49-3-1.06-5.86-2.34-8.89-3.12a18.79,18.79,0,0,0-12.48.66,8.93,8.93,0,0,0-4.75,4.36c2,1.11,3.73,2.41,5.67,3.06,4.89,1.65,9.89,3,14.84,4.49l-4.55,2.31C301.57,418.55,294.45,419.23,287.45,418.74Z" transform="translate(-113.77 -286.87)"/><path class="cls-21" d="M264.74,412.31c-1.13,2.28-2.25,4.57-3.37,6.85l-6-3.62c4.82-3.85,9.62-7.71,14.46-11.52a6.57,6.57,0,0,1,1.9-.67c-1.13,4.07-4.48,6-7.88,8Z" transform="translate(-113.77 -286.87)"/><path class="cls-21" d="M213.27,413.88h.34l9.78,4c-2.07,3.87-6.76,5.54-9.87,3.74s-3.51-4.23-1-6.85C212.78,414.51,213,414.19,213.27,413.88Z" transform="translate(-113.77 -286.87)"/><path class="cls-10" d="M308.41,420.8l4.55-2.31,3.25.6c-.69,1.79-1.34,3.59-2.1,5.34-.21.47-.75.79-1.13,1.19Z" transform="translate(-113.77 -286.87)"/><path class="cls-14" d="M184.45,408.63l3.31.85-.86,2.46c-.9,2.61-.64,3,2.08,3.29l-4,2A15,15,0,0,1,184.45,408.63Z" transform="translate(-113.77 -286.87)"/><path class="cls-8" d="M189,415.23c-2.72-.26-3-.68-2.08-3.29l.86-2.46,5.29.79Z" transform="translate(-113.77 -286.87)"/><path class="cls-13" d="M180,335.67V334l5.67,2.14,2.5.61c10.84,1.12,21.7,2.12,32.52,3.39a133.27,133.27,0,0,1,31.3,7.56c6.66,2.49,13.43,2.95,19.82-1.07a17.78,17.78,0,0,0,8.24-11.05q.23,2.88.43,5.76c-.68,1.81-1,3.84-2.09,5.4-3.56,5.27-9.19,6.88-15,7.48a51.9,51.9,0,0,1-22.25-3.05c-8.16-2.8-16.37-5.48-24.94-6.52-11.33-1.37-22.72-2.32-34.08-3.45l-.3-.69-.56-1.28Z" transform="translate(-113.77 -286.87)"/><path class="cls-15" d="M280.51,341.38q-.21-2.88-.43-5.76c.41-5.23-1.9-9.42-5.07-13.29a13.61,13.61,0,0,1-1.05-1.62c5,1.76,9,5,12.81,8.54a55.72,55.72,0,0,1,13.17,18.18c-1.54,1.06-3.09,2.11-4.61,3.19-2.66,1.9-5.3,3.82-7.94,5.73-.47-.55-.95-1.1-1.41-1.66-1.3-1.61-2.58-3.23-3.87-4.84A8.65,8.65,0,0,0,280.51,341.38Z" transform="translate(-113.77 -286.87)"/><path class="cls-18" d="M299.94,347.43a55.72,55.72,0,0,0-13.17-18.18c-3.79-3.51-7.82-6.78-12.81-8.54h-.38L263.86,313a20.92,20.92,0,0,1,2.51-1.15c2.81-.87,5.64-1.66,8.46-2.49a11.66,11.66,0,0,0,1.56,2c3.72,3.19,7.87,6,11.18,9.55a63.54,63.54,0,0,1,12.3,19.08c.81,2,1.69,3.93,2.54,5.89Z" transform="translate(-113.77 -286.87)"/><path class="cls-25" d="M269.85,343.72l-.27.09-.44.38h0A37.18,37.18,0,0,1,265,345c-4.52.36-7.28-2.5-10-5.51-1.69-1.88-3.47-3.7-5.34-5.41-2.77-2.52-5.65-4.91-8.49-7.35l.78,0c1.14.55,2.26,1.13,3.42,1.63,6,2.57,12,5,18,7.73,3.11,1.43,5.64,3.68,6.57,7.23C269.9,343.47,269.88,343.59,269.85,343.72Z" transform="translate(-113.77 -286.87)"/><path class="cls-19" d="M240.4,322.7,236.32,325l-6.95-3.13c.09-.16.26-.47.25-.47a30.83,30.83,0,0,0-4.08-2.27c-3.39-1.35-6.86-2.52-10.29-3.76l-.4-.4,1.21-1.21,1.6,0,.44-.36h0l6.47-.82a26.58,26.58,0,0,0-1.6,2.51c-.13.26.19.75.3,1.14l7.78,3.28,3.66,2v-9.7l.37-.07c2.77.17,2.77.17,2.92,3.54h0c-.14.49-.29,1-.44,1.48l-.45,4-.08.57.53-.53.42-.1a5.93,5.93,0,0,0,1.53-.39A54.8,54.8,0,0,1,255,314.55l1.11,0,1.33,2.1c-.61.26-1.2.56-1.82.78Z" transform="translate(-113.77 -286.87)"/><path class="cls-19" d="M225,336.56c-1.4.52-2.79,1.45-4.21,1.49-5.78.17-11.57.14-17.36,0a48.92,48.92,0,0,1-6.1-.86l-.14-.52,1.39-.64,6.11.84c2.74,0,5.5.19,8.23-.05a7.59,7.59,0,0,0,3.65-1.61,29.62,29.62,0,0,0,3-3.23c1.1-1.14,2.28-2.2,3.42-3.3l6.45-1.92L229,330.4c-1.28,1.62-2.59,3.21-3.82,4.87C225,335.58,225.06,336.12,225,336.56Z" transform="translate(-113.77 -286.87)"/><path class="cls-19" d="M272.79,322.7c3.19,1.47,6,6.3,5.71,9.68-.09,1.13-.68,1.48-1.56,1.26-3.54-.88-7.14-1.66-10.58-2.86a56.34,56.34,0,0,0-15.05-3.22h0l-1.27-.38L244.78,326l4.12-1.62,1.59,0a5.25,5.25,0,0,0,.88.39c3.43.83,6.89,1.56,10.29,2.48,3.6,1,7.14,2.13,10.71,3.2,1.59.23,2.34-.53,2-2C274,326.44,273.33,324.58,272.79,322.7Z" transform="translate(-113.77 -286.87)"/><path class="cls-26" d="M183.68,330.42c.39-3.22,2.94-4.36,5.47-5.19,2.83-.93,5.81-1.4,8.72-2.08l8.46-.45h22.31l.12.77-3.42,1.66-1.57.08c-9,.12-17.93,0-26.87.45C192.18,325.91,187.41,327,183.68,330.42Z" transform="translate(-113.77 -286.87)"/><path class="cls-19" d="M223.77,325.22l1.57-.09,2.08.4-5.65,2.74-3.65.92-1.3.41h-.27c-2.69.53-5.41.93-8.05,1.62-6.78,1.78-13.53,3.7-20.3,5.56l-2.5-.61a10.54,10.54,0,0,1-1.83-2.28,8.51,8.51,0,0,1-.24-2.7l3.25,2.87a4.49,4.49,0,0,0,1.69.35c2.79-.6,5.55-1.31,8.32-2a14.18,14.18,0,0,0,2-.31c4.47-1.34,8.92-2.78,13.41-4,3-.84,6.06-1.44,9.09-2.15Z" transform="translate(-113.77 -286.87)"/><path class="cls-25" d="M246.84,342.29l-12.15-4.44-.42-.55v0c0-1.25-.1-2.49,0-3.74.1-2,.29-4,.44-6a3.83,3.83,0,0,1,1.22.58c3,3.14,6.15,6.21,9,9.54C245.9,338.92,246.2,340.75,246.84,342.29Z" transform="translate(-113.77 -286.87)"/><path class="cls-8" d="M274.83,309.33c-2.82.83-5.65,1.62-8.46,2.49a20.92,20.92,0,0,0-2.51,1.15l-5.23-2.86c2.38-.79,4.75-1.63,7.15-2.36,3.69-1.12,7.41-2.15,11.11-3.22l6.75,1.6Z" transform="translate(-113.77 -286.87)"/><path class="cls-20" d="M215.25,315.41c3.43,1.24,6.9,2.41,10.29,3.76a30.83,30.83,0,0,1,4.08,2.27s-.16.31-.25.47l-1.91-.05a6.45,6.45,0,0,0-2-1.12,24.38,24.38,0,0,0-3.73-.05l-4.05-1.26-2.36-.8-4.89-2c-2.4-.74-4,.7-5.69,2l-4.46,2.85-6.08.38c.31-.34.55-.82.94-1,3.52-1.76,7-3.59,10.64-5.11,1.32-.55,3-.35,4.46-.39C211.9,315.33,213.57,315.39,215.25,315.41Z" transform="translate(-113.77 -286.87)"/><path class="cls-20" d="M246.84,342.29c-.64-1.54-.94-3.37-2-4.58-2.82-3.33-5.94-6.4-9-9.54a3.83,3.83,0,0,0-1.22-.58l-.71-.37c.57-2.1,1.34-2.2,3.57-.48l10.92,8.55.41.41.39.4a10,10,0,0,1,.81,1.8,11.8,11.8,0,0,1,.56,4c0,.36-1.93.49-3,.72Z" transform="translate(-113.77 -286.87)"/><path class="cls-26" d="M240.4,322.7l15.23-5.24c.62-.22,1.21-.52,1.82-.78,4.2-1.39,7.78.33,11.24,2.38a12.09,12.09,0,0,1,2.09,2.08l-6.52-1.55a.9.9,0,0,0-.4,0,17.22,17.22,0,0,0-2.79.14c-5.51,1.12-11,2.3-16.51,3.46Z" transform="translate(-113.77 -286.87)"/><path class="cls-19" d="M221.71,320.69a24.38,24.38,0,0,1,3.73.05,6.45,6.45,0,0,1,2,1.12c-4.41,0-8.82-.06-13.22.08-2.64.08-5.28.49-7.91.76l-8.46.45a11.38,11.38,0,0,1-2.55-.09c-.57-.13-1-.71-1.53-1.09a2.7,2.7,0,0,1,.39-.08l6.08-.38c3.71-.09,3.71-.09,4.46-2.85,1.67-1.3,3.29-2.74,5.69-2-.31,1.39-.61,2.77-1,4.45a14,14,0,0,1,3.17-.37c1.73.24,2.46-.55,2.7-2.1l2.36.8-1.58,1,.14.67Z" transform="translate(-113.77 -286.87)"/><path class="cls-20" d="M186.88,334.07l-3.25-2.87c0-.26,0-.52.05-.78,3.73-3.44,8.5-4.51,13.22-4.76,8.94-.48,17.91-.33,26.87-.45l-2.41.73c-3.29,0-6.58-.05-9.87.06-2.92.1-5.89.14-8.41,2-.59-.11-1.6-.07-1.71-.36-.59-1.63-1.49-.82-2.36-.45C193.5,326.9,188.78,328,186.88,334.07Z" transform="translate(-113.77 -286.87)"/><path class="cls-25" d="M238,320.66l-.42.1-.45,0,.45-4c.15-.49.3-1,.44-1.47h0l1.89-4.71a41.14,41.14,0,0,1,5,.52c2.32.5,4.58,1.26,6.87,1.92-3.22,1.51-6.49,2.93-9.63,4.59A31.32,31.32,0,0,0,238,320.66Z" transform="translate(-113.77 -286.87)"/><path class="cls-19" d="M248.46,335.29l-10.92-8.55c.16-.33.33-.66.59-1.17l.69-.06,1.6.83.79.41v0c2.84,2.44,5.72,4.83,8.49,7.35,1.87,1.71,3.65,3.53,5.34,5.41,2.71,3,5.47,5.87,10,5.51a37.18,37.18,0,0,0,4.13-.81c-3.14,3-8.72,2.7-12.34-.84a55.39,55.39,0,0,1-3.86-4.61c-.51-.62-1-1.28-1.44-1.92l-.65.5a5.46,5.46,0,0,1,.78,1.54c.17,1.22.15,2.46.21,3.68l-4.19,0c1-.23,2.92-.36,3-.72a11.8,11.8,0,0,0-.56-4,10,10,0,0,0-.81-1.8l.05,0,.57.17a9.55,9.55,0,0,0-.69-1.2c0-.06-.44.14-.68.22Z" transform="translate(-113.77 -286.87)"/><path class="cls-26" d="M235.08,311.71l-.37.07-2.83,0c.13-1.2-.35-1.72-1.6-1.62-1.07.09-2.15,0-3.23,0l-8.11,1.52L215.27,313l-3-1.44v-.7a22.27,22.27,0,0,1,3.94-1.39q7.22-1.17,14.47-2a8.34,8.34,0,0,1,3.54.54C236.47,308.7,235.09,310.39,235.08,311.71Z" transform="translate(-113.77 -286.87)"/><path class="cls-18" d="M276.89,304.53c-3.7,1.07-7.42,2.1-11.11,3.22-2.4.73-4.77,1.57-7.15,2.36l-4.48-1.6a5.87,5.87,0,0,1,1.69-1.11c4.85-1.16,9.72-2.22,14.57-3.36a7.17,7.17,0,0,0,1.58-.76Z" transform="translate(-113.77 -286.87)"/><path class="cls-20" d="M269.94,343.34c-.93-3.55-3.46-5.8-6.57-7.23-5.92-2.73-12-5.16-18-7.73-1.16-.5-2.28-1.08-3.42-1.63,8.41,1.65,16.55,4.12,24,8.5,2.62,1.55,5.08,3.65,4.85,7.31l-.45.8Z" transform="translate(-113.77 -286.87)"/><path class="cls-26" d="M270.79,342.56c.23-3.66-2.23-5.76-4.85-7.31-7.41-4.38-15.55-6.85-24-8.5l-.78,0v0l-.79-.41-1.6-.83-.85-1.26,6.81,1.7,5.28,1.24,1.27.38h0c3.81,1.48,7.62,3,11.44,4.43a18.47,18.47,0,0,1,7.47,5.37C271.86,339.26,272,341,270.79,342.56Z" transform="translate(-113.77 -286.87)"/><path class="cls-26" d="M251.75,313c-2.29-.66-4.55-1.42-6.87-1.92a41.14,41.14,0,0,0-5-.52c.06-1.34.66-1.67,2.07-1.69a28.46,28.46,0,0,1,13,2.48,37,37,0,0,1,3.23,2l-2.11,1.23-1.11,0Z" transform="translate(-113.77 -286.87)"/><path class="cls-23" d="M217.67,307.35c4-4.09,10.67-6.54,15.07-5.34-.88,2.38-3.68,2.34-5,4Z" transform="translate(-113.77 -286.87)"/><path class="cls-26" d="M194.18,321.89a2.7,2.7,0,0,0-.39.08l-1.58-.51,0-.72c6.91-4.26,13.71-8.95,22.67-5.73l.4.4c-1.68,0-3.35-.08-5,0-1.5,0-3.14-.16-4.46.39-3.62,1.52-7.12,3.35-10.64,5.11C194.73,321.07,194.49,321.55,194.18,321.89Z" transform="translate(-113.77 -286.87)"/><path class="cls-20" d="M264.26,319.59l6.52,1.55,1.59,1.16.43.41h0c.54,1.88,1.18,3.74,1.6,5.65.32,1.5-.43,2.26-2,2-.3-2.52-.95-4.93-2.9-6.68C267.83,322.22,266,321,264.26,319.59Z" transform="translate(-113.77 -286.87)"/><path class="cls-15" d="M244.56,323.17c5.5-1.16,11-2.34,16.51-3.46a17.22,17.22,0,0,1,2.79-.14c-.85.37-1.69.78-2.57,1.09-3.59,1.23-7.2,2.43-10.8,3.65l-1.59,0Z" transform="translate(-113.77 -286.87)"/><path class="cls-20" d="M204.7,336.89l-6.11-.84,1.28-.83c.7-.21,1.4-.43,2.11-.62l11.66-3c-.76.41-1.53.8-2.27,1.24C209.14,334.19,206.92,335.55,204.7,336.89Z" transform="translate(-113.77 -286.87)"/><path class="cls-26" d="M213.64,331.63l-11.66,3c-.71.19-1.41.41-2.11.62a7,7,0,0,1,1.72-1.11c4.23-1.27,8.48-2.46,12.72-3.69.76-.22,1.49-.54,2.23-.81h.29l1.29-.41,3.65-.92c0,.17,0,.34-.05.51l-6.84,2.44-1.24.42Z" transform="translate(-113.77 -286.87)"/><path class="cls-15" d="M234,327.22l.71.37c-.15,2-.34,4-.44,6-.06,1.25,0,2.49,0,3.74-.52-.63-1.52-1.29-1.47-1.87C233,332.7,233.56,330,234,327.22Z" transform="translate(-113.77 -286.87)"/><path class="cls-25" d="M225,336.56c.05-.44,0-1,.18-1.29,1.23-1.66,2.54-3.25,3.82-4.87l1.37-.84C229.52,332.61,228,335.18,225,336.56Z" transform="translate(-113.77 -286.87)"/><path class="cls-20" d="M221.72,328.78c0-.17,0-.34.05-.51l5.65-2.74,3.24,0-1.23,1.27L223,328.7Z" transform="translate(-113.77 -286.87)"/><path class="cls-8" d="M229.43,326.78l1.23-1.27c-.09,1.35-.19,2.7-.28,4.05l-1.37.84Z" transform="translate(-113.77 -286.87)"/><path class="cls-23" d="M215.27,313l3.67-1.29-.84,1.74h0l-.44.36-1.6,0C215.8,313.52,215.53,313.24,215.27,313Z" transform="translate(-113.77 -286.87)"/><path class="cls-19" d="M269.94,343.34l.4,0-.49.36C269.88,343.59,269.9,343.47,269.94,343.34Z" transform="translate(-113.77 -286.87)"/><path class="cls-19" d="M269.14,344.19l.44-.38Z" transform="translate(-113.77 -286.87)"/><path class="cls-15" d="M273.58,320.71h0Z" transform="translate(-113.77 -286.87)"/><path class="cls-19" d="M272.8,322.71l-.43-.41Z" transform="translate(-113.77 -286.87)"/><path class="cls-15" d="M234.27,337.3l.42.55Z" transform="translate(-113.77 -286.87)"/><path class="cls-27" d="M150.85,395.54l-.85-1.09-.78-.85-.42-.39h0l-.42-.41h0a4.17,4.17,0,0,0-.3-1.35c-1.87-3.12-1.9-6.55-1.71-10,.17-3.08,1.1-5.67,4.44-6.72,1.6-.51,3.09-1.34,4.68-1.9a66.61,66.61,0,0,1,31.15-3.49,118.06,118.06,0,0,1,16.15,3.12c9.62,2.63,18.14,7.81,26.92,12.36,5.54,2.87,10.48,6.26,13.29,12.08a41.46,41.46,0,0,1,2.4,4.87c1.1,3.35,0,5-3.39,5.59a29.72,29.72,0,0,1-4.6.44c-7.73.05-15.46,0-23.19.05a29.52,29.52,0,0,0-3.48.43,13.53,13.53,0,0,1-1.81-.13c-9.54-1.95-19.1-3.82-28.61-5.89C170.48,400.13,160.68,397.79,150.85,395.54Z" transform="translate(-113.77 -286.87)"/><path class="cls-15" d="M210.75,408.3a29.52,29.52,0,0,1,3.48-.43c7.73,0,15.46,0,23.19-.05a29.72,29.72,0,0,0,4.6-.44c3.41-.57,4.49-2.24,3.39-5.59a41.46,41.46,0,0,0-2.4-4.87c-2.81-5.82-7.75-9.21-13.29-12.08-8.78-4.55-17.3-9.73-26.92-12.36a118.06,118.06,0,0,0-16.15-3.12,66.61,66.61,0,0,0-31.15,3.49c-1.59.56-3.08,1.39-4.68,1.9-3.34,1.05-4.27,3.64-4.44,6.72-.19,3.45-.16,6.88,1.71,10a4.17,4.17,0,0,1,.3,1.35c-1.18-1.24-2.35-2.48-3.53-3.71-1.18-2.75-1-5.58-.55-8.43l.79-3.71c.43-3,2.62-4.83,4.44-6.92h0l.49-.3,7.24-5.74,2.45-1.76-2.38,3c-.55.69-1.12,1.37-1.67,2l-.81.41-.09.16.08-.17.82-.39c.66-.32,1.31-.64,2-.93l7.33-3.14v0l-1.5,2.22c8.34-1.91,16.17-3.08,24.16-2.6,2.39.48,4.76,1.27,7.09-.3s4.46-3,6.79-4.33c.89-.5,2.26-1,3.08-.64,9.17,3.69,18.41,7.24,27,12.17,5.88,3.36,11.49,7.07,15.89,12.27a75.1,75.1,0,0,1,5,7.5,15.37,15.37,0,0,1-2.38,2.39c-1.27.83-1.41,1.69-.93,3.05A30.47,30.47,0,0,1,251,410.3a8.08,8.08,0,0,1-2.37.62c-3-.14-6-.48-9-.66-7.64-.44-15.28-.81-22.91-1.26C214.7,408.88,212.73,408.54,210.75,408.3Z" transform="translate(-113.77 -286.87)"/><path class="cls-28" d="M210.75,408.3c2,.24,3.95.58,5.93.7,7.63.45,15.27.82,22.91,1.26,3,.18,6,.52,9,.66a8.08,8.08,0,0,0,2.37-.62l19.45-14.58,1.22-.81a2.12,2.12,0,0,0,.57-.19c9.79-6.65,20-12.68,29.24-20.13,10.44-8.4,21.66-15.55,34.61-19.57a12.68,12.68,0,0,0,2.95,1.17c2.16.3,3.29-1.09,2.7-3.08l12.5-3.59,12.49-3.6a56.81,56.81,0,0,0,20.79-8.63l6.91.44c0,.27,0,.53,0,.8v0a11.82,11.82,0,0,0-6.73,2.28c-5.37,3.9-11.57,6-17.87,7.81-6.79,1.9-13.74,3.26-20.47,5.32-15,4.61-29.26,10.83-41.66,20.8-6.44,5.19-13.07,10.16-19.83,14.91-4.73,3.32-10,5.85-14.73,9.19-6.13,4.36-12,9.1-17.84,13.86-2.28,1.86-4.91,1.81-7.44,1.94a123.91,123.91,0,0,1-26.91-1.83c-7.08-1.17-14.28-1.66-21.32-3-8.23-1.56-16.39-3.56-24.51-5.65-7.36-1.89-14.61-4.18-21.91-6.27a5.92,5.92,0,0,0-1.19-.11l-2.77-1.06,1.66-1.16c9.83,2.25,19.63,4.59,29.48,6.74,9.51,2.07,19.07,3.94,28.61,5.89A13.53,13.53,0,0,0,210.75,408.3Z" transform="translate(-113.77 -286.87)"/><path class="cls-18" d="M187.67,362.86c-8-.48-15.82.69-24.16,2.6l1.5-2.22.17-.18-.18.16-7.33,3.14c-.67.29-1.32.61-2,.93h0c.55-.68,1.12-1.36,1.67-2l2.38-3L160,362l.92-.42,0,0c.15-.27.29-.54.43-.81l.06-.39.35.07.4-.1h0l.43-.41h0c5.19-1.73,10.63-2.95,14.48-7.35a10.18,10.18,0,0,1,1.82-1.58c2.8-2,5.92-3.58,8-6.42l17.4,1.23c-4.95,4.86-9.92,9.71-14.84,14.6A21.33,21.33,0,0,0,187.67,362.86Z" transform="translate(-113.77 -286.87)"/><path class="cls-23" d="M157.29,364l-7.24,5.74-.49.3h0c-3.75.76-7.47,1.71-11.25,2.21a58.8,58.8,0,0,1-8.81.23c-.69,0-1.8-.56-1.94-1.07a3,3,0,0,1,.7-2.32c5.34-5.74,11.84-8.49,19.75-7.28,2.52.38,5,.87,7.52,1.39A8.09,8.09,0,0,1,157.29,364Z" transform="translate(-113.77 -286.87)"/><path class="cls-17" d="M145.1,377c-.26,1.24-.52,2.48-.79,3.71-3.3,1.79-4,3.51-3.2,8.08-2.81-1.44-4-6-1.7-8.41C140.88,378.82,143.17,378.07,145.1,377Z" transform="translate(-113.77 -286.87)"/><path class="cls-6" d="M141.11,388.76c-.78-4.57-.1-6.29,3.2-8.08-.41,2.85-.63,5.68.55,8.43l-1.08,2.12-2.23-1.66-.45-.82Z" transform="translate(-113.77 -286.87)"/><path class="cls-22" d="M161.77,360.48l-.35-.07-.48-2.85,0-1.12,1.59-3.11c.17,1.79,1,2,2.43,1.66a20.06,20.06,0,0,1,3.21-.21L162.57,360h0l-.43.41h0Z" transform="translate(-113.77 -286.87)"/><path class="cls-2" d="M161,356.44l0,1.12-5.7,0c.45-1.08.9-2.17,1.34-3.25Z" transform="translate(-113.77 -286.87)"/><path class="cls-14" d="M143.78,391.23l1.08-2.12c1.18,1.23,2.35,2.47,3.53,3.71h0l.42.41h0l.42.39.78.85Z" transform="translate(-113.77 -286.87)"/><path class="cls-15" d="M161.36,360.8c-.14.27-.28.54-.43.81C161.08,361.34,161.22,361.07,161.36,360.8Z" transform="translate(-113.77 -286.87)"/><path class="cls-15" d="M161,361.59,160,362Z" transform="translate(-113.77 -286.87)"/><path class="cls-17" d="M141.1,388.75l.45.82Z" transform="translate(-113.77 -286.87)"/><path class="cls-15" d="M348.63,312.19a4.88,4.88,0,0,1,1.47.6c4.67,4.36,9.07,8.9,9.43,15.85.05.86.25,1.72.38,2.58-.85.13-1.7.3-2.56.39l-14.5,1.56c-.26-3-.52-5.95-.77-8.92,1.34-.71,2.7-1.38,4-2.13,2.3-1.3,2.71-3.14,1.3-5.47.37-1.27.74-2.53,1.1-3.8C348.54,312.63,348.59,312.41,348.63,312.19Z" transform="translate(-113.77 -286.87)"/><path class="cls-20" d="M271.16,293.08a17.9,17.9,0,0,1,4-1.49,50.22,50.22,0,0,1,6.26-.1l2.76.33,9.21,1.44.55.18,2.25.23,1.33.35.7,0,2.95.73.72.06a14.06,14.06,0,0,0,2.24.95c1.82.44,3.66.75,5.86,1.18a23.22,23.22,0,0,1-12.7,0c-4.19-1.26-8.69-1.54-13.06-2.2a34.46,34.46,0,0,1-4.59-.51c-2.6-.75-4.76,0-6.87,1.36Z" transform="translate(-113.77 -286.87)"/><path class="cls-20" d="M318.64,302.05,317,300.92l.31-.58c1.39.55,2.81,1,4.17,1.67,5.28,2.5,10.58,5,15.79,7.62a14.85,14.85,0,0,1,4,3.3,3,3,0,0,1,.58,2.54,2.57,2.57,0,0,1-2.13,1.07c-2.17-.09-4.31-.48-6.47-.75h5.08l.27-.81c-3.75-6.07-10.49-7.87-16.37-10.9h0l-.79-.39-1.6-.46-.44-.44-.34-.34-.07-.07Z" transform="translate(-113.77 -286.87)"/><path class="cls-25" d="M322.22,304.08c5.88,3,12.62,4.83,16.37,10.9l-.27.81h-5.08l-2.15-.86-.39-.32,0,0-.83-.43,0,0c-.66-1.09-1.32-2.18-2-3.27l-.45-.42h0c-.57-.78-1.11-1.59-1.72-2.33C324.62,306.82,323.41,305.46,322.22,304.08Z" transform="translate(-113.77 -286.87)"/><path class="cls-19" d="M301.23,306.44c-5.76-1.6-11.51-3.18-17.26-4.79a7.08,7.08,0,0,1-1.05-.48l.84-.41,1.58.07a60.34,60.34,0,0,0,6.36,1.7c4,.65,7.95,1.18,11.95,1.47a5.13,5.13,0,0,0,5.21-3.07l.72-.53,1.74.39c-.27.69-.55,1.38-.83,2.07l-.41.41h0a8.92,8.92,0,0,1-7.76,2.86A2.92,2.92,0,0,0,301.23,306.44Z" transform="translate(-113.77 -286.87)"/><path class="cls-20" d="M299.55,289.47l-2-1.36.17-.65a17,17,0,0,1,2.26,0c4.87.63,9.89.09,14.61,1.92a3.87,3.87,0,0,0,1.19.08h0l.38.39c0,.12,0,.24.05.37-.69,1.19-1.36,2.39-2.07,3.58-.52.86-1.07,1.7-1.61,2.55h0l-.83-.42h0l-.06-.46c.5-1.49,1-3,1.58-4.77C308.72,289.72,304.27,288.43,299.55,289.47Z" transform="translate(-113.77 -286.87)"/><path class="cls-25" d="M309.56,305.27l.47-.88c1.06-.08,2.12-.21,3.18-.23.84,0,2.08-.23,2.48.23,1.71,2,4.05,3.61,4.13,6.61-3-1.33-6-2.6-9-4C310.28,306.7,310,305.85,309.56,305.27Z" transform="translate(-113.77 -286.87)"/><path class="cls-20" d="M319.82,311c-.08-3-2.42-4.65-4.13-6.61-.4-.46-1.64-.24-2.48-.23-1.06,0-2.12.15-3.18.23l.06-1.13h0l.41-.41c.28-.69.56-1.38.83-2.07l1.14-1.2a24.62,24.62,0,0,0,3,3.28c3.08,2.4,6,4.91,7.62,8.55l-.38.39Z" transform="translate(-113.77 -286.87)"/><path class="cls-26" d="M285.34,300.83l-1.58-.07-2.27-1.14.05-.68H310.1l-.29.64c-1.08,0-2.16,0-3.23,0q-9.43.57-18.86,1.17Z" transform="translate(-113.77 -286.87)"/><path class="cls-23" d="M293.4,293.26l-9.21-1.44,4.41-1.16,10.91,2.06,2.85,2-.46.13-.72-.06-2.95-.73-.7,0-1.33-.35-2.25-.23Z" transform="translate(-113.77 -286.87)"/><path class="cls-26" d="M331.13,300.45c-2.76,0-5.53.05-8.29-.07a34.7,34.7,0,0,1-4.25-.66l.05-.9c5.74,0,11.47-.09,17.19.07,1.16,0,2.3,1,3.44,1.5Z" transform="translate(-113.77 -286.87)"/><path class="cls-20" d="M331.13,300.45l8.14-.06,2.81,1.23.82.42h0c.71,1.41,1.46,2.8,2.1,4.25.75,1.72.18,2.51-1.76,2.59l-.72-2.77c-1.57-2.66-3.45-4.83-6.92-4.92A31.43,31.43,0,0,1,331.13,300.45Z" transform="translate(-113.77 -286.87)"/><path class="cls-15" d="M287.72,300.77q9.42-.58,18.86-1.17c1.07-.06,2.15,0,3.23,0-.07.28-.15.55-.23.82l-.72.53c-2.75.08-5.5.27-8.25.24C296.31,301.11,292,300.91,287.72,300.77Z" transform="translate(-113.77 -286.87)"/><path class="cls-19" d="M319.82,311l2.86.81c-.2,1.19-1,1.39-1.94,1-3.57-1.53-7.14-3.06-10.65-4.72-1.23-.58-1.5-1.66-.53-2.81.42.58.72,1.43,1.29,1.71C313.8,308.4,316.82,309.67,319.82,311Z" transform="translate(-113.77 -286.87)"/><path class="cls-25" d="M342.51,306.11l.72,2.77a1.86,1.86,0,0,0-.34.06l-9.78-4.47,3.69.06Z" transform="translate(-113.77 -286.87)"/><path class="cls-26" d="M323.06,311.42c-1.66-3.64-4.54-6.15-7.62-8.55a24.62,24.62,0,0,1-3-3.28c4.1,2.42,7.89,5.21,10.48,9.28C323.34,309.49,323,310.56,323.06,311.42Z" transform="translate(-113.77 -286.87)"/><path class="cls-23" d="M272.75,296c2.84.41,5.67,1,8.53,1.15,3.07.14,6.16-.23,9.25-.24,2.05,0,4.11.22,6.16.35l0,.56c-7.69-.21-15.38-.4-23.08-.66-.45,0-.89-.49-1.34-.75Z" transform="translate(-113.77 -286.87)"/><path class="cls-26" d="M288.6,290.66l-4.41,1.16-2.76-.33-2.23-.95,1-1,2.75,0Z" transform="translate(-113.77 -286.87)"/><path class="cls-20" d="M336.8,304.53l-3.69-.06-6.85-2.41,0,0Z" transform="translate(-113.77 -286.87)"/><path class="cls-26" d="M302.36,294.72l-2.85-2,3.66.44,2.4.79,2.07,1.61h0Z" transform="translate(-113.77 -286.87)"/><path class="cls-18" d="M322.22,304.08c1.19,1.38,2.4,2.74,3.57,4.14.61.74,1.15,1.55,1.72,2.33l-.65,0-7-7.34,1.6.46.79.39Z" transform="translate(-113.77 -286.87)"/><path class="cls-23" d="M320.21,292.22l1,.46c-1.16,1.49-2.31,3-3.47,4.46l-.37.81H316l-.38-.46Z" transform="translate(-113.77 -286.87)"/><path class="cls-12" d="M317.34,298c.13-.27.25-.54.37-.81a6.15,6.15,0,0,0,1.68.41c3.93-.24,7.87-.54,11.8-.82l.5.42Z" transform="translate(-113.77 -286.87)"/><path class="cls-26" d="M312.49,296.37c.54-.85,1.09-1.69,1.61-2.55.71-1.19,1.38-2.39,2.07-3.58.09.35.36.79.24,1-.8,1.75-1.68,3.45-2.54,5.16C313.35,297.48,312.92,297.06,312.49,296.37Z" transform="translate(-113.77 -286.87)"/><path class="cls-15" d="M326.86,310.57l.65,0h0l.45.42c.65,1.09,1.31,2.18,2,3.27Z" transform="translate(-113.77 -286.87)"/><path class="cls-26" d="M272.75,296l-.5.41a12,12,0,0,1-2.05-1.75c-.12-.16.62-1,1-1.53l1.62,2.53A1.87,1.87,0,0,1,272.75,296Z" transform="translate(-113.77 -286.87)"/><path class="cls-20" d="M326.26,302.06l-.91-.1.08-.28.87.34Z" transform="translate(-113.77 -286.87)"/><path class="cls-26" d="M311.68,296l.83.42Z" transform="translate(-113.77 -286.87)"/><path class="cls-19" d="M342.9,302l-.82-.42Z" transform="translate(-113.77 -286.87)"/><path class="cls-26" d="M307.64,295.56l.54.14-.1.16-.43-.31Z" transform="translate(-113.77 -286.87)"/><path class="cls-19" d="M306.83,293.94l.52.13-.51-.14Z" transform="translate(-113.77 -286.87)"/><path class="cls-15" d="M329.9,314.21l.83.43Z" transform="translate(-113.77 -286.87)"/><path class="cls-18" d="M319.05,302.45l.34.34Z" transform="translate(-113.77 -286.87)"/><path class="cls-19" d="M316.12,289.87l-.38-.39Z" transform="translate(-113.77 -286.87)"/><path class="cls-15" d="M330.7,314.61l.39.32Z" transform="translate(-113.77 -286.87)"/><path class="cls-26" d="M311.63,295.51l.06.46Z" transform="translate(-113.77 -286.87)"/><path class="cls-18" d="M318.64,302.05l.34.33Z" transform="translate(-113.77 -286.87)"/><path class="cls-3" d="M161,356.44l-4.39-2.15c-4-3.43-3.88-5.6.88-8.13,2.53-1.35,5.31-2.24,8-3.34l4.85,0,5.23.81,4.42,1-1.58,1.57h0l-.38.41-9.8,8.17A20.06,20.06,0,0,0,165,355c-1.4.31-2.26.13-2.43-1.66Z" transform="translate(-113.77 -286.87)"/><path class="cls-8" d="M170.29,342.86l-4.85,0A27.53,27.53,0,0,1,180,335.67l1.23,3.6c-2.06.16-4.22,0-6.13.59C173.38,340.42,171.89,341.82,170.29,342.86Z" transform="translate(-113.77 -286.87)"/><path class="cls-3" d="M381.81,425.56l-9.31,3.35c-5.49.91-10.95,2.13-16.47,2.63-6.34.56-12.73.47-19.1.66-1.15,0-2.29,0-3.44,0l-8.7-1.16,8.43-6.62a15.19,15.19,0,0,0,1.92-1.43,23.26,23.26,0,0,1,2-2.29c2.28-1.68,4.66-3.21,7-4.81L349,413.1A29.8,29.8,0,0,1,366.06,411l8.83,3,5.67,3.27,1.63.8,4.07,4.36Z" transform="translate(-113.77 -286.87)"/><path class="cls-21" d="M306.38,381l8.18-6.48c8.25,1.5,16.51,3,24.74,4.53a3,3,0,0,1,1.49,1.17,57.22,57.22,0,0,0,3.43,4.67c1.6,1.7,3.48,3.14,5.24,4.69-1.68.95-3.43,1.78-5,2.86-2,1.37-2.05,3-.26,4.65a35.25,35.25,0,0,0,2.84,2.15l-12-2.17c-.2,2.85-.35,5.16-.51,7.47L332,407c-4.25-.38-7.64-2.49-10.66-5.34l-3.93-7.22q-1.81-4.83-3.64-9.68C312,382.18,309,381.89,306.38,381Z" transform="translate(-113.77 -286.87)"/><path class="cls-21" d="M316.21,419.09l-3.25-.6C308,417,303,415.65,298.12,414c-1.94-.65-3.66-1.95-5.67-3.06a8.93,8.93,0,0,1,4.75-4.36,18.79,18.79,0,0,1,12.48-.66c3,.78,5.93,2.06,8.89,3.12,1.61,1.08,3.32,2,4.82,3.27,2.24,1.81,2.95,4.25,2.32,7.45l-7.08-.52Z" transform="translate(-113.77 -286.87)"/><path class="cls-17" d="M332,407l2.5-2.42L349,413.1l-4.88,2.82c-.51-.12-1-.21-1.52-.37-3.27-1.08-6.53-2.18-9.79-3.27Q332.38,409.64,332,407Z" transform="translate(-113.77 -286.87)"/><path class="cls-12" d="M317.37,394.44l3.93,7.22-3.94.89-1.86-2.62c-.6-1-1.19-2-1.78-3.06-2.88-3.88-7.05-5.74-11.44-7.25l-5.3-1.26,3.35-2.46C306.43,387.91,313.1,388.77,317.37,394.44Z" transform="translate(-113.77 -286.87)"/><path class="cls-14" d="M332.81,412.28c3.26,1.09,6.52,2.19,9.79,3.27.49.16,1,.25,1.52.37-2.34,1.6-4.72,3.13-7,4.81a23.26,23.26,0,0,0-2,2.29,15.19,15.19,0,0,1-1.92,1.43Q333,418.36,332.81,412.28Z" transform="translate(-113.77 -286.87)"/><path class="cls-23" d="M368,316.28l-6.08-2.85c5.59-2,11.24-3.8,17.26-2.4a12.85,12.85,0,0,1,4.23,2.19,2.31,2.31,0,0,1,.57,2.06c-.14.45-1.13.75-1.79.9a2.9,2.9,0,0,1-1.58-.2C376.33,314.24,372.14,314.87,368,316.28Z" transform="translate(-113.77 -286.87)"/><path class="cls-18" d="M376.16,330.74c1.25-4.12-.33-7.26-3.34-10a23.74,23.74,0,0,1-2.38-2.89l7.32,4,2,1.58c-.14.62-.31,1.23-.41,1.86-.3,1.81-.57,3.63-.85,5.45Z" transform="translate(-113.77 -286.87)"/><path class="cls-5" d="M393.9,330.89,387,329l-5.18-4.29,8.52,2.45h0l.81.41h0l.42.52Z" transform="translate(-113.77 -286.87)"/><path class="cls-2" d="M390.3,327.18l-8.52-2.45,0,0-.37-.42-1.65-.88-2-1.58A23.66,23.66,0,0,1,389,325.75,8.76,8.76,0,0,1,390.3,327.18Z" transform="translate(-113.77 -286.87)"/><path class="cls-2" d="M391.11,327.59l-.81-.41Z" transform="translate(-113.77 -286.87)"/><path class="cls-2" d="M391.52,328.1l-.42-.52Z" transform="translate(-113.77 -286.87)"/><path class="cls-5" d="M394.36,331.26c-.15-.14-.29-.29-.44-.44C394.07,331,394.21,331.12,394.36,331.26Z" transform="translate(-113.77 -286.87)"/><path class="cls-15" d="M379.79,323.46l1.65.88.37.42,0,0L387,329c1,1.68,2.58,3.14,2.09,5.4l-1.56,2.87a56.62,56.62,0,0,1-20.79,8.62c.89-.43,1.77-.89,2.66-1.29,3.59-1.63,7.34-3,10.7-5a15,15,0,0,0,4.63-5.14c1.19-1.94.29-3.11-2-3.31-1.4-.12-2.79-.29-4.18-.44.28-1.82.55-3.64.85-5.45C379.48,324.69,379.65,324.08,379.79,323.46Z" transform="translate(-113.77 -286.87)"/><path class="cls-14" d="M399.23,406.56l6.46-3.21a37.34,37.34,0,0,0,3.77,12.42c.45,1,.75,2,1.11,3l-11.36-6.06a5.45,5.45,0,0,0,.34-1.45C399.49,409.68,399.34,408.12,399.23,406.56Z" transform="translate(-113.77 -286.87)"/><path class="cls-8" d="M421.13,406.21c0,1.43.69,2.05,2.07,2s2.65,0,4,0l-5.67,1.58-1.75-.08C418.73,407.15,418.79,407,421.13,406.21Z" transform="translate(-113.77 -286.87)"/><path class="cls-8" d="M421.52,405.8l-.4.42Z" transform="translate(-113.77 -286.87)"/><path class="cls-29" d="M378.53,330.77c1.39.15,2.78.32,4.18.44,2.27.2,3.17,1.37,2,3.31a15,15,0,0,1-4.63,5.14c-3.36,2-7.11,3.33-10.7,5-.89.4-1.77.86-2.66,1.29l-12.49,3.61-12.5,3.59c-2.18-.82-4.69-1.12-5.45-4.11l-.74.42.54,5.6c-12.95,4-24.17,11.17-34.61,19.57C292.2,382,282,388.07,272.21,394.72a2.12,2.12,0,0,1-.57.19l-.11-.11c.45-2.18-.95-3.49-2.23-4.9-1.71-1.88-3.88-3.71-3.33-6.58s1.58-5.53,2.39-8.29l2-2L285,358.8l2.43-2.45c2.64-1.91,5.28-3.83,7.94-5.73,1.52-1.08,3.07-2.13,4.61-3.19l2.47-1.61,15-6.83,2-.5a61.14,61.14,0,0,1,6.57-.74c2.6,0,3.62,1,4.48,3.48a7.17,7.17,0,0,0,1.76,2.88,10,10,0,0,0,2.78,1.3c.45-1.27.92-2.53,1.32-3.81.06-.19-.2-.48-.3-.73a5.28,5.28,0,0,1,4.11-7.27l2.76-.43,14.5-1.56c.86-.09,1.71-.26,2.56-.39l1.6,0,14.65-.43Z" transform="translate(-113.77 -286.87)"/><path class="cls-15" d="M317.38,339l-15,6.83c-.85-2-1.73-3.91-2.54-5.89a63.54,63.54,0,0,0-12.3-19.08c-3.31-3.57-7.46-6.36-11.18-9.55a11.66,11.66,0,0,1-1.56-2l8.81-3.2,11.84,4,.83.45h0a5.39,5.39,0,0,0,.6.8c3.29,3,6.75,5.92,9.86,9.14A42.68,42.68,0,0,1,317.38,339Z" transform="translate(-113.77 -286.87)"/><path class="cls-15" d="M340.09,333.6a5.28,5.28,0,0,0-4.11,7.27c.1.25.36.54.3.73-.4,1.28-.87,2.54-1.32,3.81a10,10,0,0,1-2.78-1.3,7.17,7.17,0,0,1-1.76-2.88c-.86-2.44-1.88-3.5-4.48-3.48a60.67,60.67,0,0,0-6.56.74c-.92-4.14-1.56-8.37-2.82-12.4-.95-3-2.69-5.77-4.07-8.65,2.62,1.18,5.31,2.22,7.85,3.55,5.44,2.86,11.09,4.67,17.32,4.19Z" transform="translate(-113.77 -286.87)"/><path class="cls-18" d="M312.49,317.44c1.38,2.88,3.12,5.64,4.07,8.65,1.26,4,1.9,8.26,2.82,12.4l-2,.5a42.68,42.68,0,0,0-10.62-18.52c-3.11-3.22-6.57-6.1-9.86-9.14a5.39,5.39,0,0,1-.6-.8c3.73,1.46,7.47,2.88,11.17,4.41C309.19,315.66,310.82,316.6,312.49,317.44Z" transform="translate(-113.77 -286.87)"/><path class="cls-18" d="M340.09,333.6l-2.43-8.42,4.42-.93c.25,3,.51,5.95.77,8.92Z" transform="translate(-113.77 -286.87)"/><path class="cls-18" d="M296.31,310.54l-.83-.45Z" transform="translate(-113.77 -286.87)"/><path class="cls-3" d="M349.46,389.62c-1.76-1.55-3.64-3-5.24-4.69a57.22,57.22,0,0,1-3.43-4.67,3,3,0,0,0-1.49-1.17c-8.23-1.55-16.49-3-24.74-4.53l6.57-4.52c4,1.14,7.93,2,12.1,1.23,3.83-.73,7.36-1.77,9.88-5.14a53.17,53.17,0,0,1,6.1-6.72,41,41,0,0,1,5-3.59c2,0,3.95,0,5.92.08,1.53.08,3.05.33,4.57.51l.2-.21,2.68.47,5.33,2.23a6.05,6.05,0,0,1-.38,1.74c-1.48,2.51-3,5-4.39,7.17l4,3.53-.43.4c-.79-.1-1.58-.19-2.37-.31-2.28-.35-4.55-.72-6.83-1.08l-.06.44,3.16.72a13,13,0,0,1-2.44.25c-.5,0-1.18.09-1.44.41-1.79,2.23-.27,6.89,2.53,7.48,1.08.23,2.33-.31,3.5-.5-.44,1.88.47,3.16,1.91,4.18.75.52,1.54,1,2.32,1.49l1.27.77,3.69,1.94,9.3,4.9,3.42,5-1.89,6.08c-.25.3-.49.6-.74.89-2.39,2-5.14,3-8.18,2.19-3.52-.95-6.94-2.25-10.41-3.4l4.36-1.27a44.56,44.56,0,0,0-6.36-3,3,3,0,0,0-.79-.1c.31-5.54-4.08-10.95-10.46-10.11C353.27,389,351.36,389.34,349.46,389.62Z" transform="translate(-113.77 -286.87)"/><path class="cls-2" d="M387.76,403.55l1.89-6.08L400.39,394l6.18-2.24c.72,0,1.46,0,2.18.11a11.67,11.67,0,0,0,7.88-1.46l12.72,2.56v.85c-3.23.76-6.43,1.62-9.68,2.25s-6.35.87-9.5,1.47c-5.84,1.1-11,3.83-16,6.93L392,405.79Z" transform="translate(-113.77 -286.87)"/><path class="cls-10" d="M368.43,403.22c3.47,1.16,6.89,2.46,10.41,3.41,3,.83,5.79-.2,8.18-2.19,0,.49.28,1.17.05,1.45-1.7,2-3.5,4-5.27,6-1-.07-1.19.27-1.06,1.3a24,24,0,0,1-.18,4l-5.67-3.27-1.59-4.1c-.66-.74-1.18-1.73-2-2.17-1.88-1-3.92-1.69-5.85-2.6-1.24-.58-2.4-1.32-3.59-2Z" transform="translate(-113.77 -286.87)"/><path class="cls-17" d="M380.56,417.21a24,24,0,0,0,.18-4c-.13-1,.07-1.37,1.06-1.3,4,2.15,8.06,4.25,12,6.48.73.41,1.16,1.35,1.74,2-2.56-1.28-5.19-2.45-7.65-3.9a3.09,3.09,0,0,0-4.1.4,15.72,15.72,0,0,1-1.63,1.13Z" transform="translate(-113.77 -286.87)"/><path class="cls-11" d="M399.23,406.56c.11,1.56.26,3.12.32,4.68a5.45,5.45,0,0,1-.34,1.45L395,409.07Z" transform="translate(-113.77 -286.87)"/><path class="cls-17" d="M397.18,421.61l-1.61-1.23Z" transform="translate(-113.77 -286.87)"/><path class="cls-2" d="M430.06,341.69l-.51-.32Z" transform="translate(-113.77 -286.87)"/><path class="cls-2" d="M429.31,341.25l-.52-.31Z" transform="translate(-113.77 -286.87)"/><path class="cls-20" d="M303.17,293.16l-3.66-.44-10.91-2.06-5.69-1.18c5.32-1.42,10.57-1.39,15.64.95A50,50,0,0,1,303.17,293.16Z" transform="translate(-113.77 -286.87)"/><path class="cls-7" d="M331.19,296.73c-3.93.28-7.87.58-11.8.82a6.15,6.15,0,0,1-1.68-.41c1.16-1.48,2.31-3,3.47-4.46Z" transform="translate(-113.77 -286.87)"/><path class="cls-7" d="M323.46,291.89l.92.07-.07.3-.87-.34Z" transform="translate(-113.77 -286.87)"/><path class="cls-7" d="M325.35,292.43l.56-.1,0,.22-.56.11Z" transform="translate(-113.77 -286.87)"/><path class="cls-7" d="M327.91,293.12l-.93-.07.08-.29.84.37Z" transform="translate(-113.77 -286.87)"/><path class="cls-7" d="M327.9,293.13l.9,0-.07.28-.82-.33Z" transform="translate(-113.77 -286.87)"/><path class="cls-10" d="M376.93,387.53l-3.69-1.94q2.46-6.51,4.91-13c4.28-.27,5.5-1.91,4.6-6.13A3.68,3.68,0,0,0,384,366q5.75-5.22,11.44-10.51a7.88,7.88,0,0,0,.91-1.27l-.39-.45a18,18,0,0,0-3.73,1.76c-3.55,2.75-7,5.66-10.44,8.51l-7.13-6,1-.91.46-.35h0l2.31,1.21,3.11,3.65,3.57-3.23,12.93-8.24,5.31,5.76-.9.86-5.31,3.62c-2.94,2.22-5.88,4.42-8.77,6.68-.13.1.17.73.27,1.11a12.11,12.11,0,0,0,1.25,1.73c2.25,2.2,4.55,4.36,6.83,6.54a12.59,12.59,0,0,0-8.44,4.33l-6.07-7.1c-3.07,4.19-5.23,8.18-5.29,13Z" transform="translate(-113.77 -286.87)"/><path class="cls-10" d="M367.59,356.67l-2.68-.47-.78-.24-.08.25.66.2c-1.52-.18-3-.43-4.57-.51-2-.11-3.94-.06-5.92-.08a1.51,1.51,0,0,1,0-.3c4.6-1.4,9.16-3,13.81-4.18,6.73-1.76,13.28-3.87,18.93-8.13a3.83,3.83,0,0,1,.93-.36,18.14,18.14,0,0,1,8.48,5.39,35.75,35.75,0,0,0-5.48.07C382.62,349.61,375,352.77,367.59,356.67Z" transform="translate(-113.77 -286.87)"/><path class="cls-17" d="M367.59,356.67c7.38-3.9,15-7.06,23.32-8.36a35.75,35.75,0,0,1,5.48-.07c.56.65,1.13,1.29,1.69,1.93l-12.93,8.24-6.68-.42-2.31-1.21c.66-.69,1.32-1.38,2-2.06l.52-.16-.11-.13c-.14.09-.27.19-.41.3l-7.22,1.68,0,.55a19.81,19.81,0,0,1,2.09,1c.11.06-.08.63-.13,1Z" transform="translate(-113.77 -286.87)"/><path class="cls-11" d="M402.49,356.79l.9-.86,9.18,4.83a24,24,0,0,0,3.66,3.21c2.59,1.52,5.37,2.73,8,4.12a14,14,0,0,1,1.74,1.26l-2.49,0-.15-.1.16.08,5.86,3.79-.17.38-8.12-3.23-.83-.52h0a17.85,17.85,0,0,0-1.48-1.28c-5.1-3.51-10.22-7-15.32-10.52A6.49,6.49,0,0,1,402.49,356.79Z" transform="translate(-113.77 -286.87)"/><path class="cls-24" d="M394.36,338.53c0-.27,0-.53,0-.8C394.38,338,394.37,338.26,394.36,338.53Z" transform="translate(-113.77 -286.87)"/><path class="cls-3" d="M413.4,347.82l.33.42Z" transform="translate(-113.77 -286.87)"/><path class="cls-21" d="M388.32,380.8a12.59,12.59,0,0,1,8.44-4.33l1.94-.34c4.42.26,8.36,1.69,11.44,5.2l.52-.5L408.5,374l.48-.29,8.47,8.11,1.71,2.4c-.19,1.37-.39,2.73-.58,4.1l-1.95,2a11.67,11.67,0,0,1-7.88,1.46c-.72-.09-1.46-.08-2.18-.11l-7.74-2.12-9.38-3.2-2.46-.86C387.43,384,387.88,382.38,388.32,380.8Z" transform="translate(-113.77 -286.87)"/><path class="cls-3" d="M417.45,381.85,409,373.74l-.48.29,2.16,6.8-.52.5c-3.08-3.51-7-4.94-11.44-5.2-3-3.48-2.85-6.13.46-8.91l7.35-1.18c1.54.37,3.09.69,4.61,1.11,3.07.83,6.12,1.72,9.17,2.58h0l.83.52,8.12,3.23.17-.38-5.86-3.79v0l2.49,0,.71.33c.11.24.15.62.33.69,2.53,1.07,3.79,3.37,5.32,5.42.05,1.77.11,3.54.16,5.32-.6.37-1.18,1-1.81,1.06-2,.17-4,.12-6,.15Z" transform="translate(-113.77 -286.87)"/><path class="cls-23" d="M417.45,381.85l7.25.47c2.27,1,4.6,1.83,6.79,3a15.22,15.22,0,0,1,2.8,2.44l-.5.82c-1.24-.34-2.49-.65-3.72-1-3.64-1.08-7.27-2.19-10.91-3.28Z" transform="translate(-113.77 -286.87)"/><path class="cls-12" d="M354.24,355.52a1.51,1.51,0,0,0,0,.3,41,41,0,0,0-5,3.59,53.17,53.17,0,0,0-6.1,6.72c-2.52,3.37-6.05,4.41-9.88,5.14-4.17.8-8.14-.09-12.1-1.23l1.52-1.07c1.23,0,2.46,0,3.69-.06,8-.54,14.8-4,21-8.82a9.09,9.09,0,0,0,1.17-1.36,3.27,3.27,0,0,0-2.2-.05c-2,.76-4,1.65-6,2.36-3,1-6,1.95-8.93,2.91,5.46-2.25,10.89-4.58,16.39-6.73A59.52,59.52,0,0,1,354.24,355.52Z" transform="translate(-113.77 -286.87)"/><path class="cls-17" d="M297,388.36l5.3,1.26c-7.42,1.84-14.36,4.77-20.23,9.74-3,2.57-5.67,5.63-8.48,8.47a16.53,16.53,0,0,0-8.83,4.47l-.91-1c3.4-2,6.75-3.91,7.88-8a7.17,7.17,0,0,1,1.34-1.14,160.83,160.83,0,0,0,23.37-13.69A1.66,1.66,0,0,1,297,388.36Z" transform="translate(-113.77 -286.87)"/><path class="cls-23" d="M331.42,364c3-1,6-1.88,8.93-2.91,2-.71,4-1.6,6-2.36a3.27,3.27,0,0,1,2.2.05,9.09,9.09,0,0,1-1.17,1.36c-6.23,4.79-13,8.28-21,8.82-1.23.08-2.46,0-3.69.06Z" transform="translate(-113.77 -286.87)"/><path class="cls-23" d="M317.37,394.44c-4.27-5.67-10.94-6.53-17-8.54l2.41-1.94,11,.8Q315.54,389.61,317.37,394.44Z" transform="translate(-113.77 -286.87)"/><path class="cls-3" d="M313.73,384.76l-11-.8,3.64-2.92C309,381.89,312,382.18,313.73,384.76Z" transform="translate(-113.77 -286.87)"/><path class="cls-10" d="M273.57,407.83c2.81-2.84,5.44-5.9,8.48-8.47,5.87-5,12.81-7.9,20.23-9.74,4.39,1.51,8.56,3.37,11.44,7.25-3.71,1.07-7.42,2.11-11.12,3.22a50.42,50.42,0,0,0-15.9,7.53,38.18,38.18,0,0,0-3.8,3.73l-4.46-.79c3-3.54,6-7.06,8.91-10.65a9.32,9.32,0,0,0,1-2.3l-.79-.62c-2.61,2.05-5.3,4-7.79,6.19a48.83,48.83,0,0,0-4.11,4.6Z" transform="translate(-113.77 -286.87)"/><path class="cls-2" d="M282.9,411.35a38.18,38.18,0,0,1,3.8-3.73,50.42,50.42,0,0,1,15.9-7.53c3.7-1.11,7.41-2.15,11.12-3.22.59,1,1.18,2,1.78,3.06-9.87,1.88-19.29,4.87-27.37,11.14-.89.69-1.82,1.32-2.72,2Z" transform="translate(-113.77 -286.87)"/><path class="cls-23" d="M275.64,407.78a48.83,48.83,0,0,1,4.11-4.6c2.49-2.19,5.18-4.14,7.79-6.19l.79.62a9.32,9.32,0,0,1-1,2.3c-2.92,3.59-5.93,7.11-8.91,10.65h-5.39l4.88-2.51Z" transform="translate(-113.77 -286.87)"/><path class="cls-16" d="M204.31,345.87l-17.4-1.23-3.7-.38-2.39-.1,1.3-2.92c11.36,1.13,22.75,2.08,34.08,3.45,8.57,1,16.78,3.72,24.94,6.52a51.9,51.9,0,0,0,22.25,3.05c5.84-.6,11.47-2.21,15-7.48,1.05-1.56,1.41-3.59,2.09-5.4a8.65,8.65,0,0,1,1.6,8.47l-1.68,2.82a44.3,44.3,0,0,1-5.2,4.62c-4.28,2.78-9.19,3.48-14.21,3.57l-6.86-1c-1.2-.42-2.39-.83-3.58-1.26-7.07-2.58-14.06-5.4-21.23-7.66-5-1.57-10.16-2.37-15.25-3.52Z" transform="translate(-113.77 -286.87)"/><path class="cls-23" d="M170.29,342.86c1.6-1,3.09-2.44,4.84-3,1.91-.61,4.07-.43,6.13-.59l.56,1.28-6.3,3.12Z" transform="translate(-113.77 -286.87)"/><path class="cls-8" d="M175.52,343.67l6.3-3.12.3.69c-.43,1-.86,1.95-1.3,2.92l-.88.48Z" transform="translate(-113.77 -286.87)"/><path class="cls-18" d="M280.43,352.67l1.68-2.82c1.29,1.61,2.57,3.23,3.87,4.84.46.56.94,1.11,1.41,1.66L285,358.8Z" transform="translate(-113.77 -286.87)"/><path class="cls-20" d="M231.88,311.75l2.83,0v9.7l-3.66-2c.14-2.23.28-4.47.44-7.11l-8.22,3.83c-.11-.39-.43-.88-.3-1.14a26.58,26.58,0,0,1,1.6-2.51l.77-.43Z" transform="translate(-113.77 -286.87)"/><path class="cls-25" d="M223.27,316.23l8.22-3.83c-.16,2.64-.3,4.88-.44,7.11Z" transform="translate(-113.77 -286.87)"/><path class="cls-20" d="M251.75,313l3.26,1.57a54.8,54.8,0,0,0-15.52,5.72,5.93,5.93,0,0,1-1.53.39,31.32,31.32,0,0,1,4.16-3.09C245.26,315.91,248.53,314.49,251.75,313Z" transform="translate(-113.77 -286.87)"/><path class="cls-12" d="M225.34,312.15l-.77.43-6.47.82.84-1.74,8.11-1.52Z" transform="translate(-113.77 -286.87)"/><path class="cls-20" d="M237.09,320.72l.45,0-.53.53Z" transform="translate(-113.77 -286.87)"/><path class="cls-7" d="M238,315.25c-.14.49-.29,1-.44,1.47C237.69,316.23,237.84,315.74,238,315.25Z" transform="translate(-113.77 -286.87)"/><path class="cls-12" d="M217.66,313.76l.44-.36Z" transform="translate(-113.77 -286.87)"/><path class="cls-25" d="M221.72,328.78l1.26-.08c-1.14,1.1-2.32,2.16-3.42,3.3a29.62,29.62,0,0,1-3,3.23,7.59,7.59,0,0,1-3.65,1.61c-2.73.24-5.49.06-8.23.05,2.22-1.34,4.44-2.7,6.67-4,.74-.44,1.51-.83,2.27-1.24h0l1.24-.42Z" transform="translate(-113.77 -286.87)"/><path class="cls-25" d="M250.49,324.31c3.6-1.22,7.21-2.42,10.8-3.65.88-.31,1.72-.72,2.57-1.09a.9.9,0,0,1,.4,0c1.74,1.36,3.57,2.63,5.21,4.11,1.95,1.75,2.6,4.16,2.9,6.68-3.57-1.07-7.11-2.22-10.71-3.2-3.4-.92-6.86-1.65-10.29-2.48A5.25,5.25,0,0,1,250.49,324.31Z" transform="translate(-113.77 -286.87)"/><path class="cls-7" d="M251.33,327.57l-1.27-.38Z" transform="translate(-113.77 -286.87)"/><path class="cls-2" d="M186.88,334.07c1.9-6.07,6.62-7.17,12.13-6.88.27.94.54,1.87.82,2.81l-2.94,2.44c-2.77.67-5.53,1.38-8.32,2A4.49,4.49,0,0,1,186.88,334.07Z" transform="translate(-113.77 -286.87)"/><path class="cls-25" d="M196.89,332.44l2.94-2.44,3.25-2c2.52-1.86,5.49-1.9,8.41-2,3.29-.11,6.58-.05,9.87-.06-3,.71-6.09,1.31-9.09,2.15-4.49,1.26-8.94,2.7-13.41,4A14.18,14.18,0,0,1,196.89,332.44Z" transform="translate(-113.77 -286.87)"/><path class="cls-7" d="M218.12,329.19l-1.29.41Z" transform="translate(-113.77 -286.87)"/><path class="cls-7" d="M215.3,318.63c-.24,1.55-1,2.34-2.7,2.1a14,14,0,0,0-3.17.37c.37-1.68.67-3.06,1-4.45Z" transform="translate(-113.77 -286.87)"/><path class="cls-7" d="M204.72,318.66c-.75,2.76-.75,2.76-4.46,2.85Z" transform="translate(-113.77 -286.87)"/><path class="cls-25" d="M221.71,320.69l-5.49.44-.14-.67,1.58-1Z" transform="translate(-113.77 -286.87)"/><path class="cls-19" d="M248.87,335.7l-.41-.41,0,0,.4.4Z" transform="translate(-113.77 -286.87)"/><path class="cls-19" d="M249.26,336.1l-.39-.4,0-.05.4.41Z" transform="translate(-113.77 -286.87)"/><path class="cls-15" d="M203.08,328l-3.25,2c-.28-.94-.55-1.87-.82-2.81.87-.37,1.77-1.18,2.36.45C201.48,327.93,202.49,327.89,203.08,328Z" transform="translate(-113.77 -286.87)"/><path class="cls-7" d="M249.31,336.06l-.4-.41-.4-.4c.24-.08.64-.28.68-.22a9.55,9.55,0,0,1,.69,1.2Z" transform="translate(-113.77 -286.87)"/><path class="cls-25" d="M240.42,326.34l.79.41Z" transform="translate(-113.77 -286.87)"/><path class="cls-2" d="M225.34,312.15l1.71-2c1.08,0,2.16.08,3.23,0,1.25-.1,1.73.42,1.6,1.62Z" transform="translate(-113.77 -286.87)"/><path class="cls-20" d="M214.88,331.22l-1.24.42Z" transform="translate(-113.77 -286.87)"/><path class="cls-15" d="M148.81,393.22l-.42-.41Z" transform="translate(-113.77 -286.87)"/><path class="cls-15" d="M149.22,393.6l-.42-.39Z" transform="translate(-113.77 -286.87)"/><path class="cls-30" d="M204.31,345.87l9.79,1.54c-.68.81-1.36,1.61-2.14,2.55l1.85,1c5.52,3,11.19,5.67,16.5,8.95a85.8,85.8,0,0,1,13.13,9.62c5.28,4.86,9,11,11.93,17.59l-2.82,2.38a75.1,75.1,0,0,0-5-7.5c-4.4-5.2-10-8.91-15.89-12.27-8.63-4.93-17.87-8.48-27-12.17-.82-.34-2.19.14-3.08.64-2.33,1.32-4.56,2.83-6.79,4.33s-4.7.78-7.09.3a21.33,21.33,0,0,1,1.8-2.39C194.39,355.58,199.36,350.73,204.31,345.87Z" transform="translate(-113.77 -286.87)"/><path class="cls-29" d="M252.55,389.53l2.82-2.38a42.79,42.79,0,0,0,4.54-2.79c2.42-1.91,3.54-1.66,4.46,1.27a7.91,7.91,0,0,1,.32,1.36c.29,2.26.44,4.53.86,6.76.35,1.95,1.38,2.46,3.39,2,.45-.09.93-.12,1.39-.18l.1.11L251,410.3A30.47,30.47,0,0,0,249.24,395c-.48-1.36-.34-2.22.93-3.05A15.37,15.37,0,0,0,252.55,389.53Z" transform="translate(-113.77 -286.87)"/><path class="cls-18" d="M154.88,367.69l.81-.41h0l-.82.39Z" transform="translate(-113.77 -286.87)"/><path class="cls-8" d="M149.56,370.06l.49-.3Z" transform="translate(-113.77 -286.87)"/><path class="cls-18" d="M154.87,367.68l-.08.17.09-.16Z" transform="translate(-113.77 -286.87)"/><path class="cls-15" d="M336.06,355l-.54-5.6.74-.42c.76,3,3.27,3.29,5.45,4.11.59,2-.54,3.38-2.7,3.08A12.68,12.68,0,0,1,336.06,355Z" transform="translate(-113.77 -286.87)"/><path class="cls-29" d="M271.64,394.91l-1.22.81-.09-.11,1.2-.81Z" transform="translate(-113.77 -286.87)"/><path class="cls-15" d="M183.21,344.26l3.7.38c-2.12,2.84-5.24,4.42-8,6.42a10.18,10.18,0,0,0-1.82,1.58c-3.85,4.4-9.29,5.62-14.48,7.35l5.63-5.21,9.8-8.17.38-.41h0Z" transform="translate(-113.77 -286.87)"/><path class="cls-15" d="M161.77,360.48l.4-.1Z" transform="translate(-113.77 -286.87)"/><path class="cls-15" d="M162.15,360.39l.43-.41Z" transform="translate(-113.77 -286.87)"/><path class="cls-15" d="M165,363.22l.18-.16-.17.18Z" transform="translate(-113.77 -286.87)"/><path class="cls-7" d="M298.23,294.06l2.95.73Z" transform="translate(-113.77 -286.87)"/><path class="cls-7" d="M296.2,293.67l1.33.35Z" transform="translate(-113.77 -286.87)"/><path class="cls-7" d="M293.4,293.26l.55.18Z" transform="translate(-113.77 -286.87)"/><path class="cls-25" d="M322.22,304.08l-.79-.39Z" transform="translate(-113.77 -286.87)"/><path class="cls-18" d="M328,311l-.45-.42Z" transform="translate(-113.77 -286.87)"/><path class="cls-20" d="M287.72,300.77c4.29.14,8.59.34,12.89.4,2.75,0,5.5-.16,8.25-.24a5.13,5.13,0,0,1-5.21,3.07c-4-.29-8-.82-11.95-1.47a60.34,60.34,0,0,1-6.36-1.7Z" transform="translate(-113.77 -286.87)"/><path class="cls-7" d="M310.49,302.86l-.41.41Z" transform="translate(-113.77 -286.87)"/><path class="cls-18" d="M183.21,344.26l-4.85,1.95,1.58-1.57.88-.48Z" transform="translate(-113.77 -286.87)"/><path class="cls-18" d="M178.38,346.2l-.38.41Z" transform="translate(-113.77 -286.87)"/><path class="cls-14" d="M349,413.1l-14.54-8.52c.16-2.31.31-4.62.51-7.47l12,2.17,8.44,2.8,1.23.44h0c2.36,1.09,4.73,2.14,7.07,3.27,1.84.9,3.64,1.88,5.46,2.82L366.06,411A29.8,29.8,0,0,0,349,413.1Z" transform="translate(-113.77 -286.87)"/><path class="cls-2" d="M366.06,411l3.16-2.37,4.08,1.23,1.59,4.1Z" transform="translate(-113.77 -286.87)"/><path class="cls-22" d="M355.46,402.08l-8.44-2.8a35.25,35.25,0,0,1-2.84-2.15c-1.79-1.65-1.73-3.28.26-4.65,1.59-1.08,3.34-1.91,5-2.86,1.9-.28,3.81-.6,5.72-.85,6.38-.84,10.77,4.57,10.46,10.11-1.05,3.1-1.92,3.63-6.08,3.71l-2.87-.07h0Z" transform="translate(-113.77 -286.87)"/><path class="cls-5" d="M381.81,324.76l-.37-.42Z" transform="translate(-113.77 -286.87)"/><path class="cls-15" d="M271.53,394.8l-1.2.81c-.46.06-.94.09-1.39.18-2,.42-3-.09-3.39-2-.42-2.23-.57-4.5-.86-6.76a7.91,7.91,0,0,0-.32-1.36c-.92-2.93-2-3.18-4.46-1.27a42.79,42.79,0,0,1-4.54,2.79c-3-6.56-6.65-12.73-11.93-17.59a85.8,85.8,0,0,0-13.13-9.62c-5.31-3.28-11-6-16.5-8.95L212,350c.78-.94,1.46-1.74,2.14-2.55,5.09,1.15,10.29,1.95,15.25,3.52,7.17,2.26,14.16,5.08,21.23,7.66,1.19.43,2.38.84,3.58,1.26a5.23,5.23,0,0,0,.57.8c2.79,2.7,5.66,5.31,8.35,8.1,1.89,2,3.53,4.18,5.28,6.28-.81,2.76-1.84,5.48-2.39,8.29s1.62,4.7,3.33,6.58C270.58,391.31,272,392.62,271.53,394.8Z" transform="translate(-113.77 -286.87)"/><path class="cls-15" d="M280.43,352.67,285,358.8,270.39,373,261,360.86c5-.09,9.93-.79,14.21-3.57A44.3,44.3,0,0,0,280.43,352.67Z" transform="translate(-113.77 -286.87)"/><path class="cls-18" d="M261,360.86,270.39,373l-2,2c-1.75-2.1-3.39-4.31-5.28-6.28-2.69-2.79-5.56-5.4-8.35-8.1a5.23,5.23,0,0,1-.57-.8Z" transform="translate(-113.77 -286.87)"/><path class="cls-22" d="M372.92,358.9c.05-.34.24-.91.13-1a19.81,19.81,0,0,0-2.09-1l0-.55,7.22-1.68h0c-.67.68-1.33,1.37-2,2.06h0l-.46.35-1,.91,7.13,6,.95,2.39c.9,4.22-.32,5.86-4.6,6.13l-3.23-.95-2.8-.27-4-3.53c1.36-2.2,2.91-4.66,4.39-7.17A6.05,6.05,0,0,0,372.92,358.9Z" transform="translate(-113.77 -286.87)"/><path class="cls-11" d="M389.45,386.4l9.38,3.2,1.56,4.36-10.74,3.51-3.42-5c.51-.46,1.22-.83,1.48-1.4C388.39,389.54,388.88,388,389.45,386.4Z" transform="translate(-113.77 -286.87)"/><path class="cls-21" d="M367.74,379.15c-1.17.19-2.42.73-3.5.5-2.8-.59-4.32-5.25-2.53-7.48.26-.32.94-.37,1.44-.41a13,13,0,0,0,2.44-.25l-3.16-.72.06-.44c2.28.36,4.55.73,6.83,1.08.79.12,1.58.21,2.37.31,1.26,2.87-.34,4.59-2.45,6.12C368.71,378.24,368.24,378.72,367.74,379.15Z" transform="translate(-113.77 -286.87)"/><path class="cls-14" d="M389.45,386.4c-.57,1.55-1.06,3.14-1.74,4.63-.26.57-1,.94-1.48,1.4l-9.3-4.9,0-.79,10-1.2Z" transform="translate(-113.77 -286.87)"/><path class="cls-23" d="M374.92,371.61l3.23.95q-2.46,6.53-4.91,13l-1.27-.77C372,380.21,372,375.57,374.92,371.61Z" transform="translate(-113.77 -286.87)"/><path class="cls-10" d="M374.92,371.61c-3,4-2.88,8.6-2.95,13.21-.78-.5-1.57-1-2.32-1.49-1.44-1-2.35-2.3-1.91-4.18.5-.43,1-.91,1.5-1.29,2.11-1.53,3.71-3.25,2.45-6.12l.43-.4Z" transform="translate(-113.77 -286.87)"/><path class="cls-21" d="M359.56,402.59c4.16-.08,5-.61,6.08-3.71a3,3,0,0,1,.79.1,44.56,44.56,0,0,1,6.36,3l-4.36,1.27-6.56-.14Z" transform="translate(-113.77 -286.87)"/><path class="cls-14" d="M400.39,394l-1.56-4.36,7.74,2.12Z" transform="translate(-113.77 -286.87)"/><path class="cls-17" d="M359.56,402.59l2.31.5c1.19.66,2.35,1.4,3.59,2,1.93.91,4,1.6,5.85,2.6.81.44,1.33,1.43,2,2.17l-4.08-1.23c-1.82-.94-3.62-1.92-5.46-2.82-2.34-1.13-4.71-2.18-7.07-3.27Z" transform="translate(-113.77 -286.87)"/><path class="cls-17" d="M387,385.54l-10,1.2c.06-4.86,2.22-8.85,5.29-13l6.07,7.1C387.88,382.38,387.43,384,387,385.54Z" transform="translate(-113.77 -286.87)"/><path class="cls-14" d="M420.29,369.73c-3.05-.86-6.1-1.75-9.17-2.58-1.52-.42-3.07-.74-4.61-1.11-1.14-.76-2.26-1.58-3.44-2.28-1.94-1.15-3.93-2.24-5.89-3.35l5.31-3.62a6.49,6.49,0,0,0,1,1.14c5.1,3.52,10.22,7,15.32,10.52A17.85,17.85,0,0,1,420.29,369.73Z" transform="translate(-113.77 -286.87)"/><path class="cls-24" d="M397.18,360.41c2,1.11,3.95,2.2,5.89,3.35,1.18.7,2.3,1.52,3.44,2.28l-7.35,1.18c-3.58-.62-7.11-.7-10.48,1-.1-.38-.4-1-.27-1.11C391.3,364.83,394.24,362.63,397.18,360.41Z" transform="translate(-113.77 -286.87)"/><path class="cls-2" d="M388.68,368.2c3.37-1.68,6.9-1.6,10.48-1-3.31,2.78-3.45,5.43-.46,8.91l-1.94.34c-2.28-2.18-4.58-4.34-6.83-6.54A12.11,12.11,0,0,1,388.68,368.2Z" transform="translate(-113.77 -286.87)"/><path class="cls-23" d="M382.75,366.43,381.8,364c3.47-2.85,6.89-5.76,10.44-8.51a18,18,0,0,1,3.73-1.76l.39.45a7.88,7.88,0,0,1-.91,1.27Q389.75,360.77,384,366A3.68,3.68,0,0,1,382.75,366.43Z" transform="translate(-113.77 -286.87)"/><path class="cls-14" d="M378.47,358l6.68.42-3.57,3.23Z" transform="translate(-113.77 -286.87)"/><path class="cls-17" d="M375.69,357.13l.46-.35Z" transform="translate(-113.77 -286.87)"/><path class="cls-3" d="M364.71,356.41l-.66-.2.08-.25.78.24Z" transform="translate(-113.77 -286.87)"/><path class="cls-22" d="M378.15,354.73c.14-.11.27-.21.41-.3l.11.13-.52.16Z" transform="translate(-113.77 -286.87)"/><path class="cls-14" d="M421.11,370.24l-.83-.52Z" transform="translate(-113.77 -286.87)"/><path class="cls-3" d="M423.54,369.3l-.16-.08.15.1Z" transform="translate(-113.77 -286.87)"/><path class="cls-17" d="M355.46,402.08l1.23.44Z" transform="translate(-113.77 -286.87)"/></svg>