<svg id="Camada_1" data-name="Camada 1" xmlns="http://www.w3.org/2000/svg" viewBox="0 0 432.01 461.45"><defs><style>.cls-1{fill:#f6928d;}.cls-2{fill:#ef8585;}.cls-3{fill:#f6938f;}.cls-4{fill:#f58f35;}.cls-5{fill:#e1676d;}.cls-6{fill:#cc4a4b;}.cls-7{fill:#f9b989;}.cls-8{fill:#673232;}.cls-9{fill:#fefdfd;}.cls-10{fill:#f9ba34;}.cls-11{fill:#f59034;}.cls-12{fill:#f58f34;}</style></defs><path class="cls-1" d="M330,331.62a191.9,191.9,0,0,1,36.07,10.12,172.22,172.22,0,0,1,33.41,17.54,3.18,3.18,0,0,0,3.75.2c11.59-6,23.25-12,35.67-16.1,4.84-1.61,10-2.4,15-3.43a3.66,3.66,0,0,1,4.53,2.68c1.12,4.35,2.69,8.8,2.64,13.19-.13,11.87-.63,23.77-1.68,35.6-1,11.57-3,23.06-4.44,34.6a4.43,4.43,0,0,0,.31,2,121.44,121.44,0,0,1,6.51,25.6,4.24,4.24,0,0,0,2.47,3.49c10.15,5.46,20.23,11,30.33,16.6.33.18.67.34,1.16.59.64-1.37,1.16-2.72,1.86-4,1-1.75,2.34-3.13,4.56-3,2.4.18,3.4,1.88,3.78,4a85,85,0,0,1,.7,22.47c0,.38-.11.76-.12,1.14-.31,6.89-.53,13.78-.95,20.66-.35,5.63-.79,11.27-1.49,16.86-.24,1.89-1.42,3.66-2.16,5.49a5.28,5.28,0,0,0-1.69-.46c-2.27.23-4.53.66-6.81.87-7.22.65-14.45,1.37-21.69,1.82-9.63.6-19.27,1.36-28.91,1.36-21.64,0-43.31.86-64.92-1.28-5-.5-10.09-.49-15.1-1-7.13-.75-14.25-1.7-21.34-2.72-8.31-1.19-16.68-2.16-24.87-3.9-11.89-2.52-23.69-5.48-35.46-8.53a276.22,276.22,0,0,1-47.45-17.37c-13.16-6.13-25.93-13.07-37.57-21.81-7.82-5.87-15.3-12.22-22.69-18.64-3.75-3.26-7-7.11-10.4-10.76a169.19,169.19,0,0,1-19.93-26.62c-.89-1.44-2-2.71-3.07-4.06a135.81,135.81,0,0,1,24-38.76A161.71,161.71,0,0,1,213.86,348a186.07,186.07,0,0,1,52.39-16.79c2.11-.36,4.23-.64,6.34-1,2.43,3,4.73,6.13,7.35,9a43.54,43.54,0,0,0,5.5,4.36c-9.67.81-19.28,1.94-28.91,4.53l2.65,9.14c28.52-6.26,56.79-5.93,85.32.24.7-3.28,1.35-6.34,2-9.56-4.11-.74-7.71-1.48-11.34-2-5.83-.85-11.69-1.54-17.53-2.3A40.05,40.05,0,0,0,330,331.62ZM453.45,363.4l-.47-.25-25.07,22.7,18.95,28.75.54-.2Q450.42,388.9,453.45,363.4ZM432.1,454.8c0,4.61.95,7.67,3.15,10.39,3.12,3.85,7.46,4.18,10.49.3a19.73,19.73,0,0,0,3.2-7.4,14.54,14.54,0,0,0-3-13.19,6.5,6.5,0,0,0-10.24-.22A14.19,14.19,0,0,0,432.1,454.8Z" transform="translate(-75.06 -190.63)"/><path class="cls-2" d="M140,424.86c1,1.35,2.18,2.62,3.07,4.06A169.19,169.19,0,0,0,163,455.54c3.42,3.65,6.65,7.5,10.4,10.76,7.39,6.42,14.87,12.77,22.69,18.64,11.64,8.74,24.41,15.68,37.57,21.81a276.22,276.22,0,0,0,47.45,17.37c11.77,3,23.57,6,35.46,8.53,8.19,1.74,16.56,2.71,24.87,3.9,7.09,1,14.21,2,21.34,2.72,5,.53,10.08.52,15.1,1,21.61,2.14,43.28,1.28,64.92,1.28,9.64,0,19.28-.76,28.91-1.36,7.24-.45,14.47-1.17,21.69-1.82,2.28-.21,4.54-.64,6.81-.87a5.28,5.28,0,0,1,1.69.46c-2.95,3.07-5.56,6.6-8.92,9.13-11.68,8.81-25,14.56-38.67,19.45-12,4.28-24.11,8-36.17,12-.78.25-1.51.64-2.27,1-3.26.76-6.54,1.47-9.77,2.35-.49.13-1,1-1.11,1.56-2.68,12.15-5.11,24.36-8,36.45-2.26,9.38-5.06,18.64-9.91,27.1-1,1.7-2.23,3.24-3.36,4.85-3.23,0-6.45.13-9.68.13-13.46,0-26.92-.1-40.38.07-2.67,0-4.07-1-4.82-3.21-1.75-5.22-3.57-10.44-5-15.74-1.62-5.83-3-11.73-4.26-17.64-.47-2.18-1.81-1.82-3.26-1.73-7.18.45-14.36,1-21.55,1.29-3.65.15-7.32-.13-11-.21-3.88-.52-7.76-1.06-11.65-1.49-.3,0-.87.63-1,1.06-.55,2.14-.93,4.33-1.48,6.47-2.66,10.51-4.78,21.18-9.65,31-3.46,0-6.92.13-10.37.13-13.31,0-26.61-.07-39.92.06-2.32,0-4-.74-5-2.6a115.91,115.91,0,0,1-6.21-12.79c-5.38-14.39-8.55-29.39-11.51-44.43-.87-4.43-1.53-8.9-2.51-13.31a6.72,6.72,0,0,0-2.08-3.57,142.66,142.66,0,0,1-40.13-51.28,113.42,113.42,0,0,1-10.18-35.41c-.77-6.92-1-13.89-1.46-20.84l1.38-14.4c1.87-7.45,3.67-14.92,5.63-22.35A61.8,61.8,0,0,1,140,424.86Z" transform="translate(-75.06 -190.63)"/><path class="cls-3" d="M132.06,453.4l-1.38,14.4c-7.29-1.42-10.46-4.09-17.81-15-25,5.76-35.82-10.78-37.81-25,3.46,4.95,7.51,9.22,13,11.92,5.65,2.78,11.29,3,16.56.39-1.7-5-3.79-9.81-5-14.83a28.67,28.67,0,0,1,7-26.9c4.2-4.61,9.66-5.54,15.46-3.78s10.79,5.08,12,11.53A30.14,30.14,0,0,1,131.46,425c-2.62,5.37-5.73,10.49-8.52,15.78a3.66,3.66,0,0,0-.31,2.83A21.68,21.68,0,0,0,132.06,453.4Zm-19.19-16.82c4.53-5.28,8.45-10.69,10.93-16.92a34.62,34.62,0,0,0,2.21-9.74,7.65,7.65,0,0,0-5.36-7.55c-2.85-.92-5.35.08-7.75,3.11a10.41,10.41,0,0,0-1,1.54,32.34,32.34,0,0,0-3.69,18.86C108.6,429.77,109.42,433.6,112.87,436.58Z" transform="translate(-75.06 -190.63)"/><path class="cls-4" d="M246.57,223.71c-.47-17.89,14.14-31.81,29.05-33,10.28-.78,19.51,1.71,26.95,9.2a31.57,31.57,0,0,1,9.58,21.31c1,20.95-14.78,34-30.95,35C261.34,257.45,246.22,240.67,246.57,223.71Zm58.2-.24c.46-14-11.3-25.85-25.39-25.67s-25.16,10.81-25.39,25c-.25,15.15,11.52,25.85,25.35,26C293.45,249.05,305.09,237.23,304.77,223.47Z" transform="translate(-75.06 -190.63)"/><path class="cls-4" d="M330,331.62a40.05,40.05,0,0,1-12.38,12L314.5,345a31.41,31.41,0,0,1-18.4,1.9c-3.63-.7-7.11-2.17-10.66-3.29a43.54,43.54,0,0,1-5.5-4.36c-2.62-2.83-4.92-6-7.35-9-2.26-5.08-4-10.25-3.84-15.94.33-11.64,5.4-20.71,15-27.14a31,31,0,0,1,24.11-4.67c12.51,2.44,20.77,9.78,24.87,21.44a32,32,0,0,1-2,26.23C330.48,330.64,330.27,331.13,330,331.62Zm-28.44,8.29a25.38,25.38,0,0,0,.58-50.76,25.37,25.37,0,0,0-26,25.38C276.07,328.66,288,340.42,301.6,339.91Z" transform="translate(-75.06 -190.63)"/><path class="cls-4" d="M382.33,256.52c.61,17.9-15,32.73-32.66,32.62a33.07,33.07,0,0,1-32.88-31.27c-.82-20,15.28-33.33,30.16-34.37C368.17,222,383.41,239.45,382.33,256.52Zm-32.41-25.58c-14.16-.81-25.79,12.05-25.77,25.07,0,14.05,11.45,25.78,25.28,25.71,14.68-.08,25.62-10.77,25.83-25.32C375.47,242.79,364.38,230.59,349.92,230.94Z" transform="translate(-75.06 -190.63)"/><path class="cls-5" d="M383.74,651.84c1.13-1.61,2.38-3.15,3.36-4.85,4.85-8.46,7.65-17.72,9.91-27.1,2.9-12.09,5.33-24.3,8-36.45.13-.59.62-1.43,1.11-1.56,3.23-.88,6.51-1.59,9.77-2.35-.77,4.81-1.43,9.65-2.36,14.44-1,5.39-2.06,10.81-3.55,16.08-2.9,10.25-6,20.45-9.31,30.56-1.09,3.28-3.22,6.24-5,9.26a4.25,4.25,0,0,1-4.29,2.09C388.82,651.76,386.28,651.87,383.74,651.84Z" transform="translate(-75.06 -190.63)"/><path class="cls-5" d="M260,651.84c4.87-9.82,7-20.49,9.65-31,.55-2.14.93-4.33,1.48-6.47.11-.43.68-1.09,1-1.06,3.89.43,7.77,1,11.65,1.49-2.66,10.9-5.59,21.71-10.88,31.7-.18.34-.4.66-.58,1-1.68,3.19-4,5.1-7.93,4.45A30.24,30.24,0,0,0,260,651.84Z" transform="translate(-75.06 -190.63)"/><path class="cls-6" d="M285.44,343.57c3.55,1.12,7,2.59,10.66,3.29a31.41,31.41,0,0,0,18.4-1.9l3.16-1.34c5.84.76,11.7,1.45,17.53,2.3,3.63.52,7.23,1.26,11.34,2-.68,3.22-1.33,6.28-2,9.56-28.53-6.17-56.8-6.5-85.32-.24l-2.65-9.14C266.16,345.51,275.77,344.38,285.44,343.57Z" transform="translate(-75.06 -190.63)"/><path class="cls-7" d="M453.45,363.4q-3,25.5-6.05,51l-.54.2-18.95-28.75L453,363.15Z" transform="translate(-75.06 -190.63)"/><path class="cls-8" d="M432.1,454.8a14.19,14.19,0,0,1,3.59-10.12,6.5,6.5,0,0,1,10.24.22,14.54,14.54,0,0,1,3,13.19,19.73,19.73,0,0,1-3.2,7.4c-3,3.88-7.37,3.55-10.49-.3C433.05,462.47,432.1,459.41,432.1,454.8Z" transform="translate(-75.06 -190.63)"/><path class="cls-9" d="M112.87,436.58c-3.45-3-4.27-6.81-4.66-10.7A32.34,32.34,0,0,1,111.9,407a10.41,10.41,0,0,1,1-1.54c2.4-3,4.9-4,7.75-3.11a7.65,7.65,0,0,1,5.36,7.55,34.62,34.62,0,0,1-2.21,9.74C121.32,425.89,117.4,431.3,112.87,436.58Z" transform="translate(-75.06 -190.63)"/><path class="cls-10" d="M304.77,223.47c.32,13.76-11.32,25.58-25.43,25.4-13.83-.17-25.6-10.87-25.35-26,.23-14.24,11.39-24.87,25.39-25S305.23,209.51,304.77,223.47Zm-34.62,6.41c-.71,1.05-1.88,2-1.71,2.65a9.31,9.31,0,0,0,2.4,4.42c1.69,1.45,3.36,2.56,3.3,5.13,0,1.26.37,2.87,2.15,2.64,1.57-.2,2.16-1.44,2.21-3,0-.64.62-1.26,1-1.9a8.3,8.3,0,0,1,.82,1.84c.25,1.52.58,3.16,2.4,3.08s2.42-1.51,2.21-3.17.45-2.75,1.92-3.73c5.06-3.39,5.09-10.52-.2-13.55-3.4-1.95-7.39-2.84-11-4.4a5.26,5.26,0,0,1-2.68-2.44c-1.46-3.63.56-6.06,5.32-6.72,3.52-.5,6.25,1.21,7.77,4.49a2.89,2.89,0,0,0,2.46,1.27,2.82,2.82,0,0,0,1.42-2.36,8.87,8.87,0,0,0-3.75-5.8,6.7,6.7,0,0,1-1.66-2.66c-.62-1.43-.06-3.75-2.54-3.71-2.21,0-1.94,1.92-2.12,3.42-.05.4-.56.73-.86,1.09a8.34,8.34,0,0,1-.95-1,2.58,2.58,0,0,1-.34-1.09c-.16-1.47-.72-2.61-2.42-2.4s-1.9,1.65-1.81,3a3.71,3.71,0,0,1-1.75,3.64c-2.86,2.08-3.81,5.13-3.28,8.55.57,3.65,2.45,6.23,6.3,7a19.77,19.77,0,0,1,3.3.95,36.9,36.9,0,0,1,6.5,2.79,3.73,3.73,0,0,1-.67,6.78,16.5,16.5,0,0,1-6.72.64,5.21,5.21,0,0,1-4.94-3.83C272,230.93,271.19,230.65,270.15,229.88Z" transform="translate(-75.06 -190.63)"/><path class="cls-10" d="M301.6,339.91c-13.56.51-25.53-11.25-25.41-25.38a25.52,25.52,0,0,1,51,.21A25,25,0,0,1,301.6,339.91Zm-6.54-32.47c0-3.32.8-4.37,3.77-5.17a7.92,7.92,0,0,1,9.34,4c.45.8,1.76,1.12,2.67,1.66.44-.89,1.46-2,1.2-2.62a14.83,14.83,0,0,0-3.28-5.26c-1.33-1.22-2.26-2.13-2.28-4.07a3.35,3.35,0,0,0-1.85-2.59c-1.7-.43-2.25,1.13-2.61,2.53,0,.08,0,.17,0,.23-.34.56-.69,1.11-1,1.66a5.76,5.76,0,0,1-.8-1.61c-.2-1.41-.24-3-2.17-2.91s-2.46,1.55-2.41,3.06a4,4,0,0,1-1.83,3.61c-3.11,2.43-3.71,5.81-2.83,9.51a7.52,7.52,0,0,0,5.79,5.87c2.95.81,5.85,1.81,8.72,2.88a4.48,4.48,0,0,1,3,4.91,4.53,4.53,0,0,1-4.39,3.37c-.61,0-1.22.08-1.83.16-3.77.47-5.83-.64-7.71-3.81-.39-.66-1.84-1.4-2.32-1.15a3.11,3.11,0,0,0-1.42,2.42,5.87,5.87,0,0,0,3.87,5.28c1.52.62,2,1.42,1.85,2.92-.06.45,0,.92,0,1.38-.14,1.44.72,2.46,1.91,2.29.84-.12,1.59-1.33,2.21-2.17.26-.36-.09-1.11.1-1.57s.72-1,1.09-1,1,.59,1.1,1c.19.64-.11,1.44.12,2a2.8,2.8,0,0,0,1.37,1.59,2.13,2.13,0,0,0,1.91-.59,4.86,4.86,0,0,0,.77-2.72,3,3,0,0,1,1.68-3.19c5.43-3,5.49-11.36-.21-14.13A75.55,75.55,0,0,0,298,311.32C295.77,310.63,294.77,309.44,295.06,307.44Z" transform="translate(-75.06 -190.63)"/><path class="cls-10" d="M349.92,230.94c14.46-.35,25.55,11.85,25.34,25.46-.21,14.55-11.15,25.24-25.83,25.32-13.83.07-25.26-11.66-25.28-25.71C324.13,243,335.76,230.13,349.92,230.94Zm-6.85,17.58c0-2.73,1.09-4.06,3.78-4.59,4.74-.92,7.11.23,9.6,4.34a3,3,0,0,0,2.44,1,2.32,2.32,0,0,0,1.19-1.93c-.69-1.89-1.32-4.16-2.75-5.32-1.8-1.45-3.11-2.54-2.83-5.08.07-.67-1.24-1.49-1.91-2.24-.72.66-1.47,1.28-2.13,2-.23.26-.18.76-.37,1.08a14.88,14.88,0,0,1-1.08,1.43c-.28-.53-.53-1.09-.86-1.59-.66-1-1.21-2.53-2.1-2.77-1.29-.36-2.09.89-2.19,2.32a6.23,6.23,0,0,1-.32,1.79,4.44,4.44,0,0,1-1.09,2c-3.1,2.18-4.12,5.22-3.76,8.77.45,4.29,3,6.55,7.18,7.56a65.92,65.92,0,0,1,8.41,3c1.83.73,2.34,2.31,2.19,4.16a3.29,3.29,0,0,1-2.78,3.26,34.32,34.32,0,0,1-7,.24c-2.21-.14-3.37-1.76-4.34-3.66a2.78,2.78,0,0,0-2.49-.87,2.46,2.46,0,0,0-1.18,2.12c.75,1.68,1.53,3.82,3,4.62,2.26,1.28,3.12,2.65,3,5.17,0,.68,1.29,1.45,2,2.18a16.58,16.58,0,0,0,2-2.28c.51-.83-.79-2.66,1.12-2.7,2.1,0,.72,1.92,1.26,2.79a14.38,14.38,0,0,0,2.09,2.19,19.42,19.42,0,0,0,2-2.3,2.65,2.65,0,0,0,0-1.59,2.38,2.38,0,0,1,1.57-2.68c5-2.64,5.7-10.24,1-13.25-3.28-2.08-7.16-3.3-10.89-4.59C343.77,252.14,343.08,251.58,343.07,248.52Z" transform="translate(-75.06 -190.63)"/><path class="cls-11" d="M270.15,229.88c1,.77,1.86,1.05,2,1.54a5.21,5.21,0,0,0,4.94,3.83,16.5,16.5,0,0,0,6.72-.64,3.73,3.73,0,0,0,.67-6.78A36.9,36.9,0,0,0,278,225a19.77,19.77,0,0,0-3.3-.95c-3.85-.79-5.73-3.37-6.3-7-.53-3.42.42-6.47,3.28-8.55a3.71,3.71,0,0,0,1.75-3.64c-.09-1.32.08-2.75,1.81-3s2.26.93,2.42,2.4a2.58,2.58,0,0,0,.34,1.09,8.34,8.34,0,0,0,.95,1c.3-.36.81-.69.86-1.09.18-1.5-.09-3.38,2.12-3.42,2.48,0,1.92,2.28,2.54,3.71a6.7,6.7,0,0,0,1.66,2.66,8.87,8.87,0,0,1,3.75,5.8,2.82,2.82,0,0,1-1.42,2.36,2.89,2.89,0,0,1-2.46-1.27c-1.52-3.28-4.25-5-7.77-4.49-4.76.66-6.78,3.09-5.32,6.72a5.26,5.26,0,0,0,2.68,2.44c3.65,1.56,7.64,2.45,11,4.4,5.29,3,5.26,10.16.2,13.55-1.47,1-2.14,2-1.92,3.73s-.5,3.1-2.21,3.17-2.15-1.56-2.4-3.08a8.3,8.3,0,0,0-.82-1.84c-.34.64-.95,1.26-1,1.9-.05,1.6-.64,2.84-2.21,3-1.78.23-2.19-1.38-2.15-2.64.06-2.57-1.61-3.68-3.3-5.13a9.31,9.31,0,0,1-2.4-4.42C268.27,231.92,269.44,230.93,270.15,229.88Z" transform="translate(-75.06 -190.63)"/><path class="cls-11" d="M295.06,307.44c-.29,2,.71,3.19,2.94,3.88a75.55,75.55,0,0,1,10.49,3.94c5.7,2.77,5.64,11.17.21,14.13a3,3,0,0,0-1.68,3.19,4.86,4.86,0,0,1-.77,2.72,2.13,2.13,0,0,1-1.91.59A2.8,2.8,0,0,1,303,334.3c-.23-.6.07-1.4-.12-2-.13-.44-.71-1-1.1-1s-.9.59-1.09,1,.16,1.21-.1,1.57c-.62.84-1.37,2.05-2.21,2.17-1.19.17-2.05-.85-1.91-2.29.05-.46,0-.93,0-1.38.18-1.5-.33-2.3-1.85-2.92a5.87,5.87,0,0,1-3.87-5.28,3.11,3.11,0,0,1,1.42-2.42c.48-.25,1.93.49,2.32,1.15,1.88,3.17,3.94,4.28,7.71,3.81.61-.08,1.22-.13,1.83-.16a4.53,4.53,0,0,0,4.39-3.37,4.48,4.48,0,0,0-3-4.91c-2.87-1.07-5.77-2.07-8.72-2.88a7.52,7.52,0,0,1-5.79-5.87c-.88-3.7-.28-7.08,2.83-9.51a4,4,0,0,0,1.83-3.61c-.05-1.51.53-3,2.41-3.06s2,1.5,2.17,2.91a5.76,5.76,0,0,0,.8,1.61c.34-.55.69-1.1,1-1.66,0-.06,0-.15,0-.23.36-1.4.91-3,2.61-2.53a3.35,3.35,0,0,1,1.85,2.59c0,1.94.95,2.85,2.28,4.07a14.83,14.83,0,0,1,3.28,5.26c.26.59-.76,1.73-1.2,2.62-.91-.54-2.22-.86-2.67-1.66a7.92,7.92,0,0,0-9.34-4C295.86,303.07,295.05,304.12,295.06,307.44Z" transform="translate(-75.06 -190.63)"/><path class="cls-12" d="M343.07,248.52c0,3.06.7,3.62,3.66,4.64,3.73,1.29,7.61,2.51,10.89,4.59,4.73,3,4,10.61-1,13.25a2.38,2.38,0,0,0-1.57,2.68,2.65,2.65,0,0,1,0,1.59,19.42,19.42,0,0,1-2,2.3,14.38,14.38,0,0,1-2.09-2.19c-.54-.87.84-2.83-1.26-2.79-1.91,0-.61,1.87-1.12,2.7a16.58,16.58,0,0,1-2,2.28c-.71-.73-2-1.5-2-2.18.16-2.52-.7-3.89-3-5.17-1.43-.8-2.21-2.94-3-4.62a2.46,2.46,0,0,1,1.18-2.12,2.78,2.78,0,0,1,2.49.87c1,1.9,2.13,3.52,4.34,3.66a34.32,34.32,0,0,0,7-.24,3.29,3.29,0,0,0,2.78-3.26c.15-1.85-.36-3.43-2.19-4.16a65.92,65.92,0,0,0-8.41-3c-4.14-1-6.73-3.27-7.18-7.56-.36-3.55.66-6.59,3.76-8.77a4.44,4.44,0,0,0,1.09-2,6.23,6.23,0,0,0,.32-1.79c.1-1.43.9-2.68,2.19-2.32.89.24,1.44,1.78,2.1,2.77.33.5.58,1.06.86,1.59a14.88,14.88,0,0,0,1.08-1.43c.19-.32.14-.82.37-1.08.66-.71,1.41-1.33,2.13-2,.67.75,2,1.57,1.91,2.24-.28,2.54,1,3.63,2.83,5.08,1.43,1.16,2.06,3.43,2.75,5.32a2.32,2.32,0,0,1-1.19,1.93,3,3,0,0,1-2.44-1c-2.49-4.11-4.86-5.26-9.6-4.34C344.16,244.46,343.07,245.79,343.07,248.52Z" transform="translate(-75.06 -190.63)"/></svg>