<svg id="Camada_1" data-name="Camada 1" xmlns="http://www.w3.org/2000/svg" viewBox="0 0 498.33 392"><defs><style>.cls-1{fill:#f05a24;}.cls-2{fill:#f05b25;}.cls-3{fill:#3bb44a;}.cls-4{fill:#ef5b25;}.cls-5{fill:#029346;}.cls-6{fill:#3bb54b;}.cls-7{fill:#e0dfdf;}.cls-8{fill:#dfdedc;}.cls-9{fill:#f9c2ae;}.cls-10{fill:#d25020;}.cls-11{fill:#d24f20;}.cls-12{fill:#d34f20;}.cls-13{fill:#d35122;}.cls-14{fill:#ee7048;}.cls-15{fill:#d15122;}.cls-16{fill:#fefefe;}.cls-17{fill:#f4aa93;}.cls-18{fill:#d8dd21;}.cls-19{fill:#d8de21;}.cls-20{fill:#d9dd22;}.cls-21{fill:#d9dc22;}.cls-22{fill:#d9d923;}.cls-23{fill:#d9db22;}</style></defs><path class="cls-1" d="M549.93,444.13a97.46,97.46,0,0,1,5.88,43.22A109.53,109.53,0,0,1,543,528.86a152,152,0,0,1-54.14,57.8,165.47,165.47,0,0,1-69.76,24.5c-34.29,3.94-65.46-5-92.78-26.18-26.67-20.68-46.39-46.81-58.3-78.41A157,157,0,0,1,258,445.12c1.08-29.26,12.22-54.4,32.62-75.31a175.9,175.9,0,0,1,62.85-41.38c13.48-5.23,27.72-6.27,42.11-5l1,.32a16.12,16.12,0,0,0,2.67,2.79c3.09,2,6.11,4.66,9.51,5.39A53.44,53.44,0,0,1,431,342.06a52.48,52.48,0,0,1,5.35,5.59c-2.28-1.15-4.51-2.44-6.86-3.44-6.38-2.71-12.68-3.5-19.37-.35-9.34,4.41-18.87,8.43-28.46,12.28-6.85,2.74-13.84,5.36-21.63,4.27,1.28,1.16,2.53,2.57,4.07,3.06,4.29,1.35,8.7,2.31,13.07,3.43-3.95,1.35-7.84,3-11.88,4-3,.72-6.11.61-9.43.88,2.21,2.66,5.05,3.79,8,4.69,8,2.5,16.21,1.83,24.25.2,8.86-1.8,17.71-3.25,26.77-2.63a27.38,27.38,0,0,1,5.08,1.33,63.27,63.27,0,0,0-22.39,10.37,15.76,15.76,0,0,0-4,4.28c-8,12.58-16.47,24.67-31.35,30.29a8.08,8.08,0,0,0,3.37.16c3.73-1,7.41-2.22,11.11-3.35a12.7,12.7,0,0,1-1.38,2.24c-4.88,5.23-10.36,9.6-17.29,12a16.6,16.6,0,0,0,9.25-1.16c8.31-3.12,15.43-8.19,22.11-13.93a62.09,62.09,0,0,1,16.46-10.42,64.59,64.59,0,0,1,32.23-4.45c3.58.37,6.65,1,8.28,5.14a13.89,13.89,0,0,0,8.74,8.26,3.42,3.42,0,0,1,1.62,2.4,133.85,133.85,0,0,0,7,27.78c1.23,3.21,3.2,6.13,4.8,9.2a19.23,19.23,0,0,1,1.7,3.73c1.32,5,.38,9.92-.82,14.66-2.53,10.08-5.58,20-8.42,30-.22.8-.46,1.59-.69,2.39l.61.23c2.24-4.5,4.47-9,6.67-13.51.07-.15-.28-.5-.44-.76l.71-1.41.6-.25-.28-.32.49-1,.57-1,0,0,.51-1.08c1.62-3.71,3.33-7.39,4.85-11.13,4.46-11,8-22.1,7-34.19q-.74-8.65-1.44-17.31c4.62,3.85,9.2,7.75,13.86,11.54,5.41,4.38,11,8.69,17.63,10.85,8.68,2.83,17.57,5,26.37,7.49,2.6.72,5.22,1.39,7.84,2.08a1.12,1.12,0,0,0-.68-1c-.52-.24-1.06-.46-1.61-.65a88.41,88.41,0,0,1-23.53-12c-3.6-2.66-6.65-6.07-9.95-9.13,4.77,1.6,9.49,3.37,14.32,4.77C532.86,439.62,541.4,441.82,549.93,444.13ZM514.72,485C495,524,465,552.27,426,571.69c8.49-1,17-1.91,25.25-3.72,15.11-3.3,28.5-10.11,39.5-21.2,10.41-10.5,17-23.15,20.76-37.34A95.63,95.63,0,0,0,514.72,485Zm32.82-29.68c-.07,0-.14-.07-.21-.06s0,.11-.07.17a.6.6,0,0,0,.22.06S547.52,455.34,547.54,455.28Z" transform="translate(-58.47 -220.07)"/><path class="cls-2" d="M209.43,263c13.38-3.59,26.68-2.1,39.85,1,15.19,3.55,29.52,9.28,42.44,18.2,9.16,6.32,16.29,14.21,19.67,25.14,2,6.56,4.46,13,6.79,19.45.63,1.74.18,2.61-1.43,3.51-14.89,8.37-28.67,18.24-40.56,30.58-19.35,20.05-30.6,43.81-32.55,71.78a147.62,147.62,0,0,0,2.92,39.06c.36,1.79.05,2.66-1.71,3.36-7.68,3.06-15.32,6.24-23,9.4a42.82,42.82,0,0,0-5.45,2.39c-8.09,4.74-16.65,4.92-25.51,3-10.54-2.33-20.24-6.71-29.51-12.09a5.87,5.87,0,0,0-4.39-.77c-20.22,3.73-37.45-2.58-52.41-16-11-9.83-19-21.8-25.2-35.1-8.54-18.31-15.56-37.08-19-57.08-5.62-32.63,1-62.41,20.6-89.16,9.11-12.43,19.42-23.77,31.68-33.18,9.85-7.56,21-12,33.54-12.1a59,59,0,0,1,32.14,9c6.79,4.21,13,9.36,19.48,14.1q-2.15,5.79-4.31,11.58a83.59,83.59,0,0,0-26.07-17.32c-10.73-4.37-21.69-5.35-32.91-2-9.94,2.93-18.17,8.71-25.4,15.88-5.33,5.3-10.42,10.88-15.21,16.66-12.16,14.67-20.32,31.2-23,50.27A109.4,109.4,0,0,0,71.21,364a151.66,151.66,0,0,0,8.5,31.75c5.51,14.41,11.45,28.59,21.16,40.81,8.73,11,19.07,19.78,32.93,23.5a47.61,47.61,0,0,0,19.09,1.6c2.52-.35,5.61-.78,7.63.31,8.65,4.64,17.42,8.8,27.09,10.77a29.43,29.43,0,0,0,18.4-1.72c6-2.71,12.26-5,18.33-7.59,4.72-2,9.33-4.27,14-6.39a1.88,1.88,0,0,0,1.24-2.51,27,27,0,0,1-.75-6.37c.21-7.68.34-15.37,1-23a92.15,92.15,0,0,1,10.61-35.88,132.72,132.72,0,0,1,13.86-21.37c5.53-6.82,12.08-12.9,18.62-18.8,5.25-4.74,11.17-8.74,16.88-13.13-1.18-8.58-4.94-16.55-7.72-24.83-3.48-10.41-10.79-17.31-19.7-23.07a107.92,107.92,0,0,0-29.2-12.81c-7.79-2.23-15.67-3.93-23.83-3.9H209.13Z" transform="translate(-58.47 -220.07)"/><path class="cls-3" d="M467.84,489.46l-.71,1.41-1.82,2.59-.16-.15c.27-1,.47-2.09.82-3.1,3.92-11.52,7.6-23.12,9-35.28.56-4.89.74-9.77-3.11-13.77a12.45,12.45,0,0,1-2.05-3.66c-4.43-10-6.64-20.59-8.57-31.27-.16-.89-.56-2.27-1.16-2.48-5.56-1.85-8.2-6.4-10.83-11.07a3.6,3.6,0,0,0-2.4-1.7c-6.67-.31-13.39-1-20-.48-10.8.81-20.46,5.1-29.19,11.5-6.94,5.07-13.95,10.05-20.93,15.07-3.7,1.13-7.38,2.33-11.11,3.35a8.08,8.08,0,0,1-3.37-.16c14.88-5.62,23.33-17.71,31.35-30.29a15.76,15.76,0,0,1,4-4.28A63.27,63.27,0,0,1,420,375.32a40.57,40.57,0,0,1,20.11.78,16,16,0,0,0-2.3-5c-2.95-3.84-7.13-5.85-11.67-7.11-8.76-2.43-17.55-1.69-26.29.14-7.46,1.57-14.92,3-22.59,2.76-4.37-1.12-8.78-2.08-13.07-3.43-1.54-.49-2.79-1.9-4.07-3.06,7.79,1.09,14.78-1.53,21.63-4.27,9.59-3.85,19.12-7.87,28.46-12.28,6.69-3.15,13-2.36,19.37.35,2.35,1,4.58,2.29,6.86,3.44l17.15,12.91c-1.1-3.25-2.18-6.42-3.26-9.6l-.44-.45,0,.05-.54-1,0,0c0-.24.14-.51.05-.7a44,44,0,0,0-14.29-18.26l-1.21-.53H434a12.59,12.59,0,0,0-1.87-1.79,50.24,50.24,0,0,0-19.25-7.6c-5.73-.9-14.56-9.2-15.87-14.85-.91-3.95.27-7.3,2.66-10.47.19.24.36.36.34.43-1.79,7.43,1.6,13.91,8.84,16.53a15.6,15.6,0,0,0,4.41.38c11.79.52,22.68,3.63,31.92,11.32,6.77,5.63,11.32,12.89,15.12,20.71,1.94,4,4.17,7.86,6.28,11.78,2,3.77,1.88,7.82,1.52,11.89-.09,1-.24,2-.37,3-2.56,2.41-5,4.94-7.71,7.18-3,2.51-3.26,2.88-1.56,6.13a32,32,0,0,0,2.37,3.75c3.17,4.39,8.34,4.54,11.29.06,2.39-3.62,4.24-7.6,6.32-11.42,3-.25,5.94-.51,8.9-.74,12.36-.94,24.26.58,35.53,6.16,10.38,5.14,21.27,8.33,33,7.38a4.39,4.39,0,0,1,.9.15c-.93,2.17-2.76,2.9-4.67,3.34-6.86,1.6-13.51.38-20-1.8a58.4,58.4,0,0,1-9.17-3.79c-11.24-6.13-22.64-5.88-34.26-1.31l-1.68.85-7.52,3.58,8,5.57a5.88,5.88,0,0,0,.92.82c6.39,3.69,11.41,8.92,16.41,14.25,7.12,7.59,14,15.5,22.92,21.14a80.6,80.6,0,0,0,21.46,10l2.32,1.38-1.56.1c-8.53-2.31-17.07-4.51-25.55-6.95-4.83-1.4-9.55-3.17-14.32-4.77-11.68-5.5-22-13.06-32.16-22.11.83,4.84,1.53,8.88,2.23,12.92q.72,8.65,1.44,17.31c1,12.09-2.55,23.23-7,34.19-1.52,3.74-3.23,7.42-4.85,11.13l-.51,1.08,0,0-.57,1c-.17.32-.33.65-.49,1S467.94,489.27,467.84,489.46Z" transform="translate(-58.47 -220.07)"/><path class="cls-4" d="M549.17,442.65a80.6,80.6,0,0,1-21.46-10c-8.92-5.64-15.8-13.55-22.92-21.14-5-5.33-10-10.56-16.41-14.25a5.88,5.88,0,0,1-.92-.82c1.26-.37,2.49-.84,3.77-1.09,2.78-.55,5.59-1,8.39-1.48l1.73.55c8.27,4.57,16.34,9.45,23.47,15.72C535.2,419.28,543.84,429.73,549.17,442.65Z" transform="translate(-58.47 -220.07)"/><path class="cls-5" d="M478.43,377.05c-2.08,3.82-3.93,7.8-6.32,11.42-2.95,4.48-8.12,4.33-11.29-.06a32,32,0,0,1-2.37-3.75c-1.7-3.25-1.44-3.62,1.56-6.13,2.7-2.24,5.15-4.77,7.71-7.18,6.84-6.49,11.87-13.9,12.52-23.71a11.88,11.88,0,0,1,4.93-9.09c2.26-1.66,4.88-1.51,6.22.91a24,24,0,0,1,2.52,7.6c.33,2-.78,3.62-2.6,5a13.41,13.41,0,0,0-4,4.85C484.17,363.53,481.36,370.31,478.43,377.05Z" transform="translate(-58.47 -220.07)"/><path class="cls-6" d="M209.43,263l-.3,8.41c-.91,2.2-1.83,4.39-2.74,6.59a6.54,6.54,0,0,1-7,.41c-2-1.05-3.91-2.3-5.86-3.46a2.78,2.78,0,0,1-.63-4.13,7.78,7.78,0,0,0,.6-1.82q2.16-5.79,4.31-11.58c2.58-7.76,3.12-15.46.31-23.38a20.47,20.47,0,0,1-.94-9.19c.62-4.74,4.45-6.18,8.15-3.19a18.36,18.36,0,0,1,4.56,6c.55,1.11-.16,2.9-.45,4.35-.44,2.16-1.52,4.3-1.45,6.42C208.3,246.59,208.93,254.78,209.43,263Z" transform="translate(-58.47 -220.07)"/><path class="cls-7" d="M501.35,394.42l-1.73-.55q-6.31-3.28-12.62-6.58l1.68-.85a11.78,11.78,0,0,0,3.21.89c9.82-.22,18.87,2.51,27.62,6.74,7.62,3.68,15.58,6.36,24.14,6.77,2.82.14,5.63.25,8.61.39-1.06,2.31-3.08,3.08-5.28,3.55-5.75,1.23-11.4.39-16.81-1.43s-10.56-4.24-15.84-6.37C510.17,395.3,505.94,393.93,501.35,394.42Z" transform="translate(-58.47 -220.07)"/><path class="cls-8" d="M435.13,330.6a44,44,0,0,1,14.29,18.26c.09.19,0,.46-.05.7a13.44,13.44,0,0,1-1.48-1.21,76.09,76.09,0,0,0-25.3-18,78.55,78.55,0,0,0-26-6.68l-1-.32c-1.75-3.06-4.11-6-3.39-9.81a20.76,20.76,0,0,1,2.27-6c.33,2.45.34,5,1.06,7.32,1.5,4.82,7.29,8.69,12.29,8.8a57.47,57.47,0,0,1,23.92,5.57,22.4,22.4,0,0,0,2.3.82h-.07Z" transform="translate(-58.47 -220.07)"/><path class="cls-9" d="M514.72,485a95.63,95.63,0,0,1-3.17,24.47c-3.79,14.19-10.35,26.84-20.76,37.34-11,11.09-24.39,17.9-39.5,21.2-8.28,1.81-16.76,2.73-25.25,3.72C465,552.27,495,524,514.72,485Z" transform="translate(-58.47 -220.07)"/><path class="cls-10" d="M376.71,417.07c7-5,14-10,20.93-15.07,8.73-6.4,18.39-10.69,29.19-11.5,6.63-.5,13.35.17,20,.48a3.6,3.6,0,0,1,2.4,1.7c2.63,4.67,5.27,9.22,10.83,11.07.6.21,1,1.59,1.16,2.48,1.93,10.68,4.14,21.28,8.57,31.27a12.45,12.45,0,0,0,2.05,3.66c3.85,4,3.67,8.88,3.11,13.77-1.4,12.16-5.08,23.76-9,35.28-.35,1-.55,2.06-.82,3.1l-.24.76.22.05.18-.66,1.82-2.59c.16.26.51.61.44.76-2.2,4.52-4.43,9-6.67,13.51l-.61-.23c.23-.8.47-1.59.69-2.39,2.84-10,5.89-19.94,8.42-30,1.2-4.74,2.14-9.71.82-14.66a19.23,19.23,0,0,0-1.7-3.73c-1.6-3.07-3.57-6-4.8-9.2a133.85,133.85,0,0,1-7-27.78,3.42,3.42,0,0,0-1.62-2.4,13.89,13.89,0,0,1-8.74-8.26c-1.63-4.17-4.7-4.77-8.28-5.14a64.59,64.59,0,0,0-32.23,4.45A62.09,62.09,0,0,0,389.4,416.2c-6.68,5.74-13.8,10.81-22.11,13.93a16.6,16.6,0,0,1-9.25,1.16c6.93-2.38,12.41-6.75,17.29-12A12.7,12.7,0,0,0,376.71,417.07Z" transform="translate(-58.47 -220.07)"/><path class="cls-11" d="M377.21,366.9c7.67.22,15.13-1.19,22.59-2.76,8.74-1.83,17.53-2.57,26.29-.14,4.54,1.26,8.72,3.27,11.67,7.11a16,16,0,0,1,2.3,5,40.57,40.57,0,0,0-20.11-.78,27.38,27.38,0,0,0-5.08-1.33c-9.06-.62-17.91.83-26.77,2.63-8,1.63-16.2,2.3-24.25-.2-2.9-.9-5.74-2-8-4.69,3.32-.27,6.47-.16,9.43-.88C369.37,369.87,373.26,368.25,377.21,366.9Z" transform="translate(-58.47 -220.07)"/><path class="cls-12" d="M480.13,423.22c-.7-4-1.4-8.08-2.23-12.92,10.19,9.05,20.48,16.61,32.16,22.11,3.3,3.06,6.35,6.47,9.95,9.13a88.41,88.41,0,0,0,23.53,12c.55.19,1.09.41,1.61.65a1.12,1.12,0,0,1,.68,1c-2.62-.69-5.24-1.36-7.84-2.08-8.8-2.46-17.69-4.66-26.37-7.49-6.66-2.16-12.22-6.47-17.63-10.85C489.33,431,484.75,427.07,480.13,423.22Z" transform="translate(-58.47 -220.07)"/><path class="cls-13" d="M396.57,323.71a78.55,78.55,0,0,1,26,6.68,76.09,76.09,0,0,1,25.3,18,13.44,13.44,0,0,0,1.48,1.21l0,0,.54,1,0-.05.44.45c1.08,3.18,2.16,6.35,3.26,9.6l-17.15-12.91a52.48,52.48,0,0,0-5.35-5.59,53.44,53.44,0,0,0-22.29-10.17c-3.4-.73-6.42-3.42-9.51-5.39A16.12,16.12,0,0,1,396.57,323.71Z" transform="translate(-58.47 -220.07)"/><path class="cls-12" d="M547.54,455.28c0,.06,0,.17-.06.17a.6.6,0,0,1-.22-.06c0-.06,0-.17.07-.17S547.47,455.26,547.54,455.28Z" transform="translate(-58.47 -220.07)"/><path class="cls-10" d="M469.2,486.93l.51-1.08Z" transform="translate(-58.47 -220.07)"/><path class="cls-10" d="M468.65,487.92l.57-1Z" transform="translate(-58.47 -220.07)"/><path class="cls-10" d="M467.84,489.46c.1-.19.21-.38.32-.57l.28.32Z" transform="translate(-58.47 -220.07)"/><path class="cls-14" d="M193.53,269a7.78,7.78,0,0,1-.6,1.82,2.78,2.78,0,0,0,.63,4.13c-2.11,3.83-4.12,7.72-6.35,11.47-5,8.47-10.24,16.81-17.58,23.54-2.83,2.6-5.93,5.27-10.07,4.17a33.41,33.41,0,0,1-8.1-3.91c-2.74-1.63-5.28-3.61-7.9-5.44.55-3.58-.11-6.87-3-9.23a3.65,3.65,0,0,0-6.19,2.24c-.84,4.19,1.48,8.59,4.85,9.58-2.53,5-5,10.07-7.6,15-3.37,6.35-4.62,12.46-.52,19.21,2.39,3.95,3.38,8.66,1,13.33a1.92,1.92,0,0,0,.46,1.65c3.64,3.57,4.88,8,4.62,12.91-.11,2,.35,3.08,2.46,3.77,3.54,1.15,5.15,3.68,5.05,7.38-.05,2.12-.45,4.23-.72,6.55a10.26,10.26,0,0,1,1.56.75c3.78,2.62,8.12,4.74,11.2,8,6.14,6.56,4.68,14.34-2.62,21.91,0-3.06-1.62-4.95-4.44-5.08-2.53-.11-4.87.6-6.35,2.68-.77,1.07-1.51,3-1.06,3.9a5.15,5.15,0,0,0,3.64,2.69c2.09.06,4.22-.94,6.33-1.49a12.56,12.56,0,0,0-.86,2.3c-.22,1.24-.81,3.05-.24,3.65.76.78,2.55,1,3.8.78a77.26,77.26,0,0,0,7.61-1.93c.21.89.37,1.76.62,2.61.81,2.69,2.23,5.06,5.88,3.94,1.75-.54,4-.13,5.84.35,4.42,1.15,8.54-1.6,8.59-6.19a44.83,44.83,0,0,0-.72-6.38c-.37-2.78-1.14-5.55-1.1-8.32,0-4.1,2.27-5.16,5.69-3,1.36.87,2.55,2,4.11,3.24,0-1.2,0-2.08,0-3,.08-6.32,3.92-9.43,10.23-8.6a4.61,4.61,0,0,0,3.51-1.57,35.85,35.85,0,0,0,3.59-5.93c2.63-4.91,4.51-5.82,9.88-4.49,1.59-4.49,3.21-9,9.18-9.48a38.69,38.69,0,0,1,0-4.83c.48-3.63.28-7.62,4.6-9.47.46-.2.66-1.21.84-1.88,1-3.8,1.17-8,5-10.05l-4.44-10.32a7.11,7.11,0,0,0-3.77-.94c-4.62-.27-6.24-1.58-7.13-5.87l-.95.21c-9.19,2.07-14.8-1.29-16.74-10.61s-.92-18.47-.23-27.71c.48-6.39,2.42-12.67,1.3-19.16.91-2.2,1.83-4.39,2.74-6.59h10.21c8.16,0,16,1.67,23.83,3.9a107.92,107.92,0,0,1,29.2,12.81c8.91,5.76,16.22,12.66,19.7,23.07,2.78,8.28,6.54,16.25,7.72,24.83-5.71,4.39-11.63,8.39-16.88,13.13-6.54,5.9-13.09,12-18.62,18.8a132.72,132.72,0,0,0-13.86,21.37,92.15,92.15,0,0,0-10.61,35.88c-.64,7.65-.77,15.34-1,23a27,27,0,0,0,.75,6.37,1.88,1.88,0,0,1-1.24,2.51c-4.68,2.12-9.29,4.37-14,6.39-6.07,2.61-12.3,4.88-18.33,7.59a29.43,29.43,0,0,1-18.4,1.72c-9.67-2-18.44-6.13-27.09-10.77-2-1.09-5.11-.66-7.63-.31a47.61,47.61,0,0,1-19.09-1.6c-13.86-3.72-24.2-12.53-32.93-23.5-9.71-12.22-15.65-26.4-21.16-40.81A151.66,151.66,0,0,1,71.21,364a109.4,109.4,0,0,1-.27-31.61c2.68-19.07,10.84-35.6,23-50.27,4.79-5.78,9.88-11.36,15.21-16.66,7.23-7.17,15.46-13,25.4-15.88,11.22-3.31,22.18-2.33,32.91,2A83.59,83.59,0,0,1,193.53,269Zm62.29,70.14a11.55,11.55,0,0,0-8.46,4.08c-2.19,2.68-1.21,5.92,2.13,6.78a10.91,10.91,0,0,0,9.95-2.41c1.8-1.45,3-3.35,2-5.65S258.38,339.11,255.82,339.11Zm-134.1,20.58a13.46,13.46,0,0,0-9.12,4.22c-2.21,2.42-1.54,4.81,1.64,5.77,3.83,1.15,9.92-1.1,12.06-4.52,1-1.54.84-3.13-.74-4.1A18.61,18.61,0,0,0,121.72,359.69Zm6.92,44.73c4-.45,7.38-1.53,9.86-4.56,1.53-1.88.95-3.9-1.31-4.75-3.7-1.41-10.54.85-12.69,4.19-1.22,1.9-.8,3.57,1.26,4.42A17.59,17.59,0,0,0,128.64,404.42ZM241.73,376c3.2-.23,6.19-1,8.17-3.8,1.74-2.5.83-5-2.14-5.61a10.44,10.44,0,0,0-8.66,1.92c-1.63,1.26-3,2.9-2.13,5.08C237.77,375.58,239.67,376.08,241.73,376ZM111.32,321.06a9.27,9.27,0,0,0,2.81,7c2.53,2.12,5.46,1.28,6.37-1.87a8.71,8.71,0,0,0-1.56-7.5c-1.16-1.71-2.82-3.11-5-2.38S111.17,319,111.32,321.06Zm6.5-16.23a8.45,8.45,0,0,0,3.43,7.07c2.12,1.72,4.58,1,5.58-1.53,1.12-2.9.32-5.56-1.27-8-1.18-1.79-2.88-3.26-5.19-2.47S117.84,302.75,117.82,304.83Zm81.24,119.91c-.47-4-1.31-7.74-4.13-10.68a3.28,3.28,0,0,0-2.49-1.09c-.7.2-1.35,1.36-1.59,2.22-1,3.52,1.74,10.79,4.76,12.91,1.48,1,2.5.6,3-1A13,13,0,0,0,199.06,424.74Zm-76.77-84.41a8.88,8.88,0,0,0-2-2.28c-3-2-8.58.2-9.54,3.71a4,4,0,0,0,.38,2.74c1,1.72,3.91,2.27,6.5,1.49C120,345.28,122.24,342.85,122.29,340.33Zm90.88,70.84a49.85,49.85,0,0,0-3.45-6.61c-.63-.88-2.57-1.77-3.31-1.4a4.47,4.47,0,0,0-2.3,3.34,15.46,15.46,0,0,0,1.82,6.72c.69,1.2,3,2.5,4.11,2.15C211.32,415,212,412.82,213.17,411.17Zm8-15.31c.38,4.16,1.38,7.06,3.76,9.34,1.81,1.74,3.25,1.39,4-1,1-3.39-.23-6.39-2.12-9-.79-1.09-2.53-2.28-3.64-2.11C222.24,393.21,221.59,395.25,221.19,395.86ZM232,334.6c3.86,1.33,14.91-2.5,16.6-5.75C245,327.17,233.19,331.27,232,334.6Zm2.95,52.15a48.64,48.64,0,0,0,3.32,6.57c1.3,1.84,3.18,1.28,3.75-.92.72-2.8-.37-5.26-2-7.39-.62-.82-2.19-1.64-3-1.4S235.74,385.42,234.92,386.75Zm26.7-33c-4.06-1.93-13.27,1.31-14.15,4.85C251.71,360,259.52,357.37,261.62,353.72Z" transform="translate(-58.47 -220.07)"/><path class="cls-15" d="M487,387.29q6.3,3.3,12.62,6.58c-2.8.49-5.61.93-8.39,1.48-1.28.25-2.51.72-3.77,1.09l-8-5.57Z" transform="translate(-58.47 -220.07)"/><path class="cls-8" d="M449.87,350.56l-.54-1Z" transform="translate(-58.47 -220.07)"/><path class="cls-16" d="M435.13,330.6l-1.21-.53Z" transform="translate(-58.47 -220.07)"/><path class="cls-8" d="M450.28,351l-.44-.45Z" transform="translate(-58.47 -220.07)"/><path class="cls-17" d="M206.39,278c1.12,6.49-.82,12.77-1.3,19.16-.69,9.24-1.69,18.53.23,27.71s7.55,12.68,16.74,10.61l.95-.21c.89,4.29,2.51,5.6,7.13,5.87a7.11,7.11,0,0,1,3.77.94l4.44,10.32c-3.85,2.08-4.06,6.25-5,10.05-.18.67-.38,1.68-.84,1.88-4.32,1.85-4.12,5.84-4.6,9.47a38.69,38.69,0,0,0,0,4.83c-6,.45-7.59,5-9.18,9.48-5.37-1.33-7.25-.42-9.88,4.49a35.85,35.85,0,0,1-3.59,5.93,4.61,4.61,0,0,1-3.51,1.57c-6.31-.83-10.15,2.28-10.23,8.6,0,.88,0,1.76,0,3-1.56-1.24-2.75-2.37-4.11-3.24-3.42-2.18-5.65-1.12-5.69,3,0,2.77.73,5.54,1.1,8.32a44.83,44.83,0,0,1,.72,6.38c-.05,4.59-4.17,7.34-8.59,6.19-1.88-.48-4.09-.89-5.84-.35-3.65,1.12-5.07-1.25-5.88-3.94-.25-.85-.41-1.72-.62-2.61a77.26,77.26,0,0,1-7.61,1.93c-1.25.19-3,0-3.8-.78-.57-.6,0-2.41.24-3.65a12.56,12.56,0,0,1,.86-2.3l1.88-2.7c7.3-7.57,8.76-15.35,2.62-21.91-3.08-3.29-7.42-5.41-11.2-8a10.26,10.26,0,0,0-1.56-.75c.27-2.32.67-4.43.72-6.55.1-3.7-1.51-6.23-5.05-7.38-2.11-.69-2.57-1.77-2.46-3.77.26-4.91-1-9.34-4.62-12.91a1.92,1.92,0,0,1-.46-1.65c2.37-4.67,1.38-9.38-1-13.33-4.1-6.75-2.85-12.86.52-19.21,2.63-5,5.07-10,7.6-15,2.11.25,3.39-.88,4.33-2.59,2.62,1.83,5.16,3.81,7.9,5.44a33.41,33.41,0,0,0,8.1,3.91c4.14,1.1,7.24-1.57,10.07-4.17,7.34-6.73,12.56-15.07,17.58-23.54,2.23-3.75,4.24-7.64,6.35-11.47,1.95,1.16,3.85,2.41,5.86,3.46A6.54,6.54,0,0,0,206.39,278Z" transform="translate(-58.47 -220.07)"/><path class="cls-3" d="M465.31,493.46l-.18.66-.22-.05.24-.76Z" transform="translate(-58.47 -220.07)"/><path class="cls-18" d="M255.82,339.11c2.56,0,4.72.58,5.66,2.8s-.24,4.2-2,5.65a10.91,10.91,0,0,1-9.95,2.41c-3.34-.86-4.32-4.1-2.13-6.78A11.55,11.55,0,0,1,255.82,339.11Z" transform="translate(-58.47 -220.07)"/><path class="cls-19" d="M121.72,359.69a18.61,18.61,0,0,1,3.84,1.37c1.58,1,1.7,2.56.74,4.1-2.14,3.42-8.23,5.67-12.06,4.52-3.18-1-3.85-3.35-1.64-5.77A13.46,13.46,0,0,1,121.72,359.69Z" transform="translate(-58.47 -220.07)"/><path class="cls-20" d="M128.64,404.42a17.59,17.59,0,0,1-2.88-.7c-2.06-.85-2.48-2.52-1.26-4.42,2.15-3.34,9-5.6,12.69-4.19,2.26.85,2.84,2.87,1.31,4.75C136,402.89,132.63,404,128.64,404.42Z" transform="translate(-58.47 -220.07)"/><path class="cls-20" d="M241.73,376c-2.06.09-4-.41-4.76-2.41-.87-2.18.5-3.82,2.13-5.08a10.44,10.44,0,0,1,8.66-1.92c3,.57,3.88,3.11,2.14,5.61C247.92,375,244.93,375.76,241.73,376Z" transform="translate(-58.47 -220.07)"/><path class="cls-21" d="M111.32,321.06c-.15-2,.43-4,2.6-4.73s3.86.67,5,2.38a8.71,8.71,0,0,1,1.56,7.5c-.91,3.15-3.84,4-6.37,1.87A9.27,9.27,0,0,1,111.32,321.06Z" transform="translate(-58.47 -220.07)"/><path class="cls-20" d="M143.56,304.75c-.94,1.71-2.22,2.84-4.33,2.59-3.37-1-5.69-5.39-4.85-9.58a3.65,3.65,0,0,1,6.19-2.24C143.45,297.88,144.11,301.17,143.56,304.75Z" transform="translate(-58.47 -220.07)"/><path class="cls-20" d="M117.82,304.83c0-2.08.39-4.16,2.55-4.91s4,.68,5.19,2.47c1.59,2.42,2.39,5.08,1.27,8-1,2.57-3.46,3.25-5.58,1.53A8.45,8.45,0,0,1,117.82,304.83Z" transform="translate(-58.47 -220.07)"/><path class="cls-21" d="M154.13,417.86l-1.88,2.7c-2.11.55-4.24,1.55-6.33,1.49a5.15,5.15,0,0,1-3.64-2.69c-.45-.94.29-2.83,1.06-3.9,1.48-2.08,3.82-2.79,6.35-2.68C152.51,412.91,154.12,414.8,154.13,417.86Z" transform="translate(-58.47 -220.07)"/><path class="cls-21" d="M199.06,424.74a13,13,0,0,1-.4,2.38c-.55,1.58-1.57,2-3,1-3-2.12-5.78-9.39-4.76-12.91.24-.86.89-2,1.59-2.22a3.28,3.28,0,0,1,2.49,1.09C197.75,417,198.59,420.77,199.06,424.74Z" transform="translate(-58.47 -220.07)"/><path class="cls-20" d="M122.29,340.33c-.05,2.52-2.28,4.95-4.61,5.66-2.59.78-5.5.23-6.5-1.49a4,4,0,0,1-.38-2.74c1-3.51,6.53-5.69,9.54-3.71A8.88,8.88,0,0,1,122.29,340.33Z" transform="translate(-58.47 -220.07)"/><path class="cls-21" d="M213.17,411.17c-1.14,1.65-1.85,3.79-3.13,4.2-1.08.35-3.42-.95-4.11-2.15a15.46,15.46,0,0,1-1.82-6.72,4.47,4.47,0,0,1,2.3-3.34c.74-.37,2.68.52,3.31,1.4A49.85,49.85,0,0,1,213.17,411.17Z" transform="translate(-58.47 -220.07)"/><path class="cls-21" d="M221.19,395.86c.4-.61,1.05-2.65,2-2.79,1.11-.17,2.85,1,3.64,2.11,1.89,2.63,3.15,5.63,2.12,9-.73,2.39-2.17,2.74-4,1C222.57,402.92,221.57,400,221.19,395.86Z" transform="translate(-58.47 -220.07)"/><path class="cls-22" d="M232,334.6c1.22-3.33,13.05-7.43,16.6-5.75C246.88,332.1,235.83,335.93,232,334.6Z" transform="translate(-58.47 -220.07)"/><path class="cls-23" d="M234.92,386.75c.82-1.33,1.25-2.9,2.08-3.14s2.4.58,3,1.4c1.6,2.13,2.69,4.59,2,7.39-.57,2.2-2.45,2.76-3.75.92A48.64,48.64,0,0,1,234.92,386.75Z" transform="translate(-58.47 -220.07)"/><path class="cls-21" d="M261.62,353.72c-2.1,3.65-9.91,6.25-14.15,4.85C248.35,355,257.56,351.79,261.62,353.72Z" transform="translate(-58.47 -220.07)"/></svg>